<svg width="33" height="33" viewBox="0 0 33 33" fill="none" xmlns="http://www.w3.org/2000/svg">
<path d="M27.5 0.5H5.5C2.7 0.5 0.5 2.7 0.5 5.5V27.5C0.5 30.3 2.7 32.5 5.5 32.5H27.5C30.3 32.5 32.5 30.3 32.5 27.5V5.5C32.5 2.7 30.3 0.5 27.5 0.5ZM27.5 30.5H5.5C3.8 30.5 2.5 29.2 2.5 27.5V5.5C2.5 3.8 3.8 2.5 5.5 2.5H27.5C29.2 2.5 30.5 3.8 30.5 5.5V8.4H6.5C5.9 8.4 5.5 8.8 5.5 9.4C5.5 10 5.9 10.4 6.5 10.4H30.5V27.5C30.5 29.2 29.2 30.5 27.5 30.5Z" fill="url(#paint0_linear)"/>
<path d="M8.60002 12.1C7.70002 12.1 6.90002 12.9 6.90002 13.8C6.90002 14.7 7.70002 15.5 8.60002 15.5C9.50002 15.5 10.3 14.7 10.3 13.8C10.3 12.9 9.50002 12.1 8.60002 12.1ZM16.5 12.1C15.6 12.1 14.8 12.9 14.8 13.8C14.8 14.7 15.6 15.5 16.5 15.5C17.4 15.5 18.2 14.7 18.2 13.8C18.2 12.9 17.4 12.1 16.5 12.1ZM24.4 15.5C25.3 15.5 26.1 14.7 26.1 13.8C26.1 12.9 25.3 12.1 24.4 12.1C23.5 12.1 22.7 12.9 22.7 13.8C22.7 14.7 23.5 15.5 24.4 15.5ZM8.60002 18.7C7.70002 18.7 6.90002 19.5 6.90002 20.4C6.90002 21.3 7.70002 22.1 8.60002 22.1C9.50002 22.1 10.3 21.3 10.3 20.4C10.3 19.4 9.50002 18.7 8.60002 18.7ZM16.5 18.7C15.6 18.7 14.8 19.5 14.8 20.4C14.8 21.3 15.6 22.1 16.5 22.1C17.4 22.1 18.2 21.3 18.2 20.4C18.2 19.4 17.4 18.7 16.5 18.7ZM24.4 18.7C23.5 18.7 22.7 19.5 22.7 20.4V27C22.7 27.9 23.5 28.7 24.4 28.7C25.4 28.7 26.1 27.9 26.1 27V20.4C26.1 19.4 25.4 18.7 24.4 18.7ZM8.60002 25.2C7.70002 25.2 6.90002 26 6.90002 26.9C6.90002 27.8 7.70002 28.6 8.60002 28.6C9.50002 28.6 10.3 27.8 10.3 26.9C10.3 26 9.50002 25.2 8.60002 25.2ZM16.5 25.2C15.6 25.2 14.8 26 14.8 26.9C14.8 27.8 15.6 28.6 16.5 28.6C17.4 28.6 18.2 27.8 18.2 26.9C18.2 26 17.4 25.2 16.5 25.2Z" fill="url(#paint1_linear)"/>
<defs>
<linearGradient id="paint0_linear" x1="10" y1="3" x2="30.5" y2="30.5" gradientUnits="userSpaceOnUse">
<stop stop-color="#FFD600"/>
<stop offset="1" stop-color="#7200E3"/>
</linearGradient>
<linearGradient id="paint1_linear" x1="8" y1="13" x2="22.5" y2="25" gradientUnits="userSpaceOnUse">
<stop stop-color="#FFD600"/>
<stop offset="1" stop-color="#7200E3"/>
</linearGradient>
</defs>
</svg>
