<svg width="32" height="47" viewBox="0 0 32 47" fill="none" xmlns="http://www.w3.org/2000/svg">
<path d="M24.366 21.423L26.279 0H5L5.025 0.278L6.91 21.426L6.926 21.602L15.559 24H15.695L24.348 21.6L24.364 21.424L24.366 21.423ZM15.658 4.679H21.841L21.655 6.839L15.555 9.551L15.657 10.039H21.381L20.722 17.59L15.636 19L10.552 17.592L10.232 13.976H12.325L12.493 15.809L12.509 15.987L15.594 16.807H15.727L18.778 15.959L18.793 15.782L19.081 12.396L19.104 12.12H10.057L9.867 9.947L16.176 7.246L16.076 6.756H9.596L9.411 4.676H15.651L15.658 4.679Z" fill="#FFD600"/>
<path d="M16.125 21.9999C13.9218 21.9999 16.125 18.7967 16.125 20.9999C16.125 23.0335 13.5318 22.6896 15.5 22.9374V24.4999C15.5 24.7617 15.7382 24.9998 16 24.9999H18C18.3732 24.9999 18.5926 25.104 18.75 25.2811C18.9074 25.4582 19 25.7061 19 25.9686C19 26.2311 18.9074 26.5102 18.75 26.6874C18.5926 26.8645 18.3732 26.9686 18 26.9686H14C13.3769 26.9686 12.8407 27.2416 12.5 27.6249C12.1593 28.0083 12 28.4839 12 28.9686C12 29.4533 12.1593 29.9603 12.5 30.3436C12.8407 30.7269 13.3769 30.9686 14 30.9686H15.5V31.9374H7.875C7.82169 31.9394 7.76872 31.9499 7.71875 31.9686C7.64375 31.9686 7.57506 31.9394 7.5 31.9374C7.48959 31.937 7.47916 31.937 7.46875 31.9374C3.51075 31.9373 5e-05 35.4841 0 39.4686C-9.99998e-06 43.4532 3.51072 47 7.46875 46.9999C10.4382 46.9999 13.2185 45.0678 14.3438 42.3124H17.6562C18.7815 45.0678 21.5618 46.9958 24.5312 46.9999C28.4893 47 32 43.4532 32 39.4686C32 35.4841 28.4892 31.9373 24.5312 31.9374C24.4615 31.9383 24.3821 31.9656 24.3125 31.9686C24.3025 31.969 24.2911 31.9682 24.2812 31.9686C24.2708 31.9683 24.2604 31.9683 24.25 31.9686C24.2099 31.9529 24.1678 31.9423 24.125 31.9374H16.5V30.4686C16.5 30.2068 16.2618 29.9686 16 29.9686H14C13.6269 29.9686 13.4074 29.8332 13.25 29.6561C13.0926 29.479 13 29.2311 13 28.9686C13 28.7061 13.0926 28.4582 13.25 28.2811C13.4074 28.104 13.6269 27.9686 14 27.9686H18C18.6231 27.9686 19.1593 27.7269 19.5 27.3436C19.8407 26.9603 20 26.4533 20 25.9686C20 25.4839 19.8407 25.0082 19.5 24.6249C19.1593 24.2417 18.6231 23.9999 18 23.9999H16.5V22.9374C18.4682 22.6896 15.875 23.0336 15.875 21C15.875 18.7968 18.3282 21.9999 16.125 21.9999ZM7.46875 32.9374C7.58873 32.9374 7.69289 32.9586 7.8125 32.9686C7.86581 32.9666 7.91878 32.956 7.96875 32.9374H8.03125H23.9688H24.0625C24.1026 32.9531 24.1447 32.9636 24.1875 32.9686C24.3072 32.9586 24.4113 32.9384 24.5312 32.9374C27.8774 32.9373 31 36.0854 31 39.4686C31 42.8518 27.8774 46 24.5312 45.9999C21.9015 45.9999 19.3158 44.162 18.4375 41.6561C18.3729 41.4597 18.1755 41.3149 17.9688 41.3124H14.0312C13.8245 41.315 13.6271 41.4597 13.5625 41.6561C12.6842 44.162 10.0985 45.9962 7.46875 45.9999C4.12257 46 0.99999 42.8518 1 39.4686C1.00004 36.0854 4.1226 32.9373 7.46875 32.9374ZM24.5625 34.5936C23.6025 34.5936 22.8125 35.3825 22.8125 36.3436C22.8125 37.3047 23.6025 38.0936 24.5625 38.0936C25.5225 38.0936 26.3125 37.3047 26.3125 36.3436C26.3125 35.3825 25.5225 34.5936 24.5625 34.5936ZM24.5625 35.5936C24.9781 35.5936 25.3125 35.9189 25.3125 36.3436C25.3125 36.7683 24.9781 37.0936 24.5625 37.0936C24.1469 37.0936 23.8125 36.7683 23.8125 36.3436C23.8125 35.9189 24.1469 35.5936 24.5625 35.5936ZM7.09375 35.8124C7.05097 35.8174 7.00884 35.8279 6.96875 35.8436C6.75083 35.8998 6.58665 36.1187 6.59375 36.3436V38.9686H4C3.97919 38.9673 3.95831 38.9673 3.9375 38.9686C3.6757 38.985 3.45239 39.2381 3.46875 39.4999C3.48511 39.7617 3.7382 39.985 4 39.9686H6.59375V42.5936C6.59001 42.8578 6.82957 43.1007 7.09375 43.1007C7.35793 43.1007 7.59749 42.8578 7.59375 42.5936V39.9686H10.1875C10.4517 39.9723 10.6946 39.7328 10.6946 39.4686C10.6946 39.2044 10.4517 38.9649 10.1875 38.9686H7.59375V36.3436C7.61076 36.0716 7.36629 35.8119 7.09375 35.8124ZM13.7812 37.4686C13.5195 37.5259 13.3334 37.8162 13.3906 38.078C13.4479 38.3398 13.7382 38.5259 14 38.4686H15C15.2642 38.4723 15.5071 38.2328 15.5071 37.9686C15.5071 37.7044 15.2642 37.4649 15 37.4686C14.5995 37.467 14.1651 37.4686 13.7812 37.4686ZM16.7812 37.4686C16.5195 37.5259 16.3334 37.8162 16.3906 38.078C16.4479 38.3398 16.7382 38.5259 17 38.4686H18C18.2642 38.4723 18.5071 38.2328 18.5071 37.9686C18.5071 37.7044 18.2642 37.4649 18 37.4686C17.5938 37.4686 17.1875 37.4686 16.7812 37.4686ZM21.4688 37.7186C20.5087 37.7186 19.7188 38.5075 19.7188 39.4686C19.7188 40.4297 20.5087 41.2186 21.4688 41.2186C22.4288 41.2186 23.2188 40.4297 23.2188 39.4686C23.2188 38.5075 22.4288 37.7186 21.4688 37.7186ZM27.6562 37.7186C26.6962 37.7186 25.9062 38.5075 25.9062 39.4686C25.9062 40.4297 26.6962 41.2186 27.6562 41.2186C28.6163 41.2186 29.4062 40.4297 29.4062 39.4686C29.4062 38.5075 28.6163 37.7186 27.6562 37.7186ZM21.4688 38.7186C21.8843 38.7186 22.2188 39.0439 22.2188 39.4686C22.2188 39.8933 21.8843 40.2186 21.4688 40.2186C21.0532 40.2186 20.7188 39.8933 20.7188 39.4686C20.7188 39.0439 21.0532 38.7186 21.4688 38.7186ZM27.6562 38.7186C28.0718 38.7186 28.4062 39.0439 28.4062 39.4686C28.4062 39.8933 28.0718 40.2186 27.6562 40.2186C27.2407 40.2186 26.9062 39.8933 26.9062 39.4686C26.9062 39.0439 27.2407 38.7186 27.6562 38.7186ZM24.5625 40.8436C23.6025 40.8436 22.8125 41.6325 22.8125 42.5936C22.8125 43.5547 23.6025 44.3436 24.5625 44.3436C25.5225 44.3436 26.3125 43.5547 26.3125 42.5936C26.3125 41.6325 25.5225 40.8436 24.5625 40.8436ZM24.5625 41.8436C24.9781 41.8436 25.3125 42.1689 25.3125 42.5936C25.3125 43.0183 24.9781 43.3436 24.5625 43.3436C24.1469 43.3436 23.8125 43.0183 23.8125 42.5936C23.8125 42.1689 24.1469 41.8436 24.5625 41.8436Z" fill="url(#paint0_linear)"/>
<defs>
<linearGradient id="paint0_linear" x1="16" y1="20.2263" x2="16" y2="46.9999" gradientUnits="userSpaceOnUse">
<stop offset="0.40625" stop-color="#FFD600"/>
<stop offset="1" stop-color="#7200E3"/>
</linearGradient>
</defs>
</svg>
