<svg width="281" height="370" viewBox="0 0 281 370" fill="none" xmlns="http://www.w3.org/2000/svg">
<rect x="3.5" y="3.5" width="274" height="363" rx="36.5" stroke="url(#paint0_linear)" stroke-width="7"/>
<path d="M109.961 153.504H95.0645L92.2324 162H83.1982L98.5479 120.766H106.421L121.855 162H112.821L109.961 153.504ZM97.3584 146.622H107.667L102.484 131.188L97.3584 146.622ZM125.707 162V120.766H140.15C145.154 120.766 148.949 121.729 151.535 123.654C154.122 125.561 155.415 128.365 155.415 132.065C155.415 134.086 154.896 135.87 153.857 137.418C152.819 138.947 151.375 140.071 149.524 140.788C151.639 141.317 153.3 142.383 154.509 143.988C155.736 145.593 156.35 147.557 156.35 149.879C156.35 153.844 155.085 156.846 152.555 158.885C150.025 160.924 146.419 161.962 141.736 162H125.707ZM134.203 144.045V155.175H141.481C143.483 155.175 145.04 154.703 146.154 153.759C147.287 152.796 147.854 151.474 147.854 149.794C147.854 146.018 145.899 144.102 141.991 144.045H134.203ZM134.203 138.041H140.49C144.776 137.965 146.919 136.257 146.919 132.915C146.919 131.046 146.371 129.705 145.276 128.894C144.2 128.063 142.492 127.647 140.15 127.647H134.203V138.041ZM195.12 148.265C194.799 152.701 193.157 156.194 190.192 158.743C187.247 161.292 183.358 162.566 178.524 162.566C173.238 162.566 169.075 160.792 166.035 157.242C163.014 153.674 161.504 148.784 161.504 142.572V140.052C161.504 136.087 162.202 132.594 163.6 129.573C164.997 126.552 166.989 124.24 169.575 122.635C172.181 121.011 175.201 120.199 178.638 120.199C183.396 120.199 187.228 121.474 190.136 124.022C193.043 126.571 194.724 130.149 195.177 134.756H186.681C186.473 132.094 185.727 130.168 184.443 128.979C183.178 127.77 181.243 127.166 178.638 127.166C175.806 127.166 173.682 128.186 172.266 130.225C170.868 132.245 170.151 135.388 170.113 139.655V142.771C170.113 147.226 170.784 150.483 172.124 152.541C173.483 154.599 175.617 155.628 178.524 155.628C181.149 155.628 183.103 155.033 184.387 153.844C185.689 152.635 186.435 150.776 186.624 148.265H195.12Z" fill="url(#paint1_linear)"/>
<line x1="68" y1="187" x2="213" y2="187" stroke="url(#paint2_linear)" stroke-width="8" stroke-linecap="round" stroke-linejoin="round"/>
<line x1="68" y1="206" x2="213" y2="206" stroke="url(#paint3_linear)" stroke-width="8" stroke-linecap="round" stroke-linejoin="round"/>
<line x1="68" y1="226" x2="213" y2="226" stroke="url(#paint4_linear)" stroke-width="8" stroke-linecap="round" stroke-linejoin="round"/>
<circle cx="31.5" cy="31.5" r="6" stroke="url(#paint5_linear)" stroke-width="3"/>
<circle cx="31.5" cy="333.5" r="6" stroke="url(#paint6_linear)" stroke-width="3"/>
<path d="M204.424 53.8943L218.46 56.9322C219.822 57.227 221.246 56.9399 222.387 56.1399L234.148 47.8978C234.774 47.4594 235.64 47.8559 235.717 48.6159L237.165 62.9039C237.306 64.2906 238.019 65.5557 239.132 66.3941L250.605 75.0321C251.215 75.4916 251.106 76.4379 250.407 76.746L237.266 82.5386C235.99 83.1008 235.008 84.1699 234.554 85.488L229.884 99.0687C229.636 99.791 228.702 99.9794 228.193 99.4099L218.623 88.7019C217.694 87.6626 216.374 87.0582 214.98 87.0345L200.621 86.7898C199.857 86.7768 199.39 85.9469 199.774 85.2867L207.001 72.8763C207.702 71.6718 207.869 70.2292 207.461 68.8964L203.256 55.1645C203.033 54.434 203.677 53.7327 204.424 53.8943Z" stroke="url(#paint7_linear)" stroke-width="4"/>
<path d="M69.3344 297.185L79.6731 287.42C80.4837 286.654 80.938 285.585 80.9263 284.47L80.7773 270.25L93.2589 277.065C94.2376 277.599 95.3949 277.701 96.4517 277.345L109.93 272.809L107.305 286.786C107.099 287.882 107.36 289.014 108.025 289.909L116.504 301.326L102.401 303.149C101.295 303.292 100.299 303.89 99.6528 304.799L91.4149 316.391L85.323 303.541C84.8453 302.533 83.9687 301.771 82.9047 301.437L69.3344 297.185Z" stroke="url(#paint8_linear)" stroke-width="4"/>
<defs>
<linearGradient id="paint0_linear" x1="140.5" y1="0" x2="140.5" y2="370" gradientUnits="userSpaceOnUse">
<stop stop-color="#7200E3"/>
<stop offset="1" stop-color="#FFD600"/>
</linearGradient>
<linearGradient id="paint1_linear" x1="140.5" y1="108" x2="140.5" y2="176" gradientUnits="userSpaceOnUse">
<stop offset="0.322917" stop-color="#7200E3"/>
<stop offset="1" stop-color="#FFD600"/>
</linearGradient>
<linearGradient id="paint2_linear" x1="217" y1="183.5" x2="64" y2="191" gradientUnits="userSpaceOnUse">
<stop stop-color="#8117CB"/>
<stop offset="1" stop-color="#FFD600"/>
</linearGradient>
<linearGradient id="paint3_linear" x1="217" y1="202.5" x2="64" y2="210" gradientUnits="userSpaceOnUse">
<stop stop-color="#8117CB"/>
<stop offset="1" stop-color="#FFD600"/>
</linearGradient>
<linearGradient id="paint4_linear" x1="217" y1="222.5" x2="64" y2="230" gradientUnits="userSpaceOnUse">
<stop stop-color="#8117CB"/>
<stop offset="1" stop-color="#FFD600"/>
</linearGradient>
<linearGradient id="paint5_linear" x1="31.5" y1="24" x2="31.5" y2="39" gradientUnits="userSpaceOnUse">
<stop stop-color="#FFD600"/>
<stop offset="1" stop-color="#7200E3"/>
</linearGradient>
<linearGradient id="paint6_linear" x1="31.5" y1="326" x2="31.5" y2="341" gradientUnits="userSpaceOnUse">
<stop stop-color="#FFD600"/>
<stop offset="1" stop-color="#7200E3"/>
</linearGradient>
<linearGradient id="paint7_linear" x1="199.846" y1="50.8571" x2="247.56" y2="94.724" gradientUnits="userSpaceOnUse">
<stop stop-color="#FFD600"/>
<stop offset="1" stop-color="#7200E3"/>
</linearGradient>
<linearGradient id="paint8_linear" x1="65.481" y1="298.073" x2="121.703" y2="285.111" gradientUnits="userSpaceOnUse">
<stop stop-color="#FFD600"/>
<stop offset="1" stop-color="#7200E3"/>
</linearGradient>
</defs>
</svg>
