<svg width="466" height="466" viewBox="0 0 466 466" fill="none" xmlns="http://www.w3.org/2000/svg">
<rect x="3.5" y="3.5" width="145" height="145" rx="34.5" stroke="#930DD1" stroke-width="7"/>
<rect x="3.5" y="160.5" width="145" height="145" rx="34.5" stroke="#930DD1" stroke-width="7"/>
<rect x="3.5" y="317.5" width="145" height="145" rx="34.5" stroke="#FFD600" stroke-width="7"/>
<rect x="160.5" y="3.5" width="145" height="145" rx="34.5" stroke="#930DD1" stroke-width="7"/>
<rect x="160.5" y="160.5" width="145" height="145" rx="34.5" stroke="#930DD1" stroke-width="7"/>
<rect x="160.5" y="317.5" width="145" height="145" rx="34.5" stroke="#930DD1" stroke-width="7"/>
<rect x="317.5" y="3.5" width="145" height="145" rx="34.5" stroke="#930DD1" stroke-width="7"/>
<rect x="317.5" y="160.5" width="145" height="145" rx="34.5" stroke="#930DD1" stroke-width="7"/>
<rect x="317.5" y="317.5" width="145" height="145" rx="34.5" stroke="#930DD1" stroke-width="7"/>
<path d="M82.0312 97H73V62.1875L62.2188 65.5312V58.1875L81.0625 51.4375H82.0312V97Z" fill="url(#paint0_linear)"/>
<path d="M226.281 227.25H231.094C233.385 227.25 235.083 226.677 236.188 225.531C237.292 224.385 237.844 222.865 237.844 220.969C237.844 219.135 237.292 217.708 236.188 216.688C235.104 215.667 233.604 215.156 231.688 215.156C229.958 215.156 228.51 215.635 227.344 216.594C226.177 217.531 225.594 218.76 225.594 220.281H216.562C216.562 217.906 217.198 215.781 218.469 213.906C219.76 212.01 221.552 210.531 223.844 209.469C226.156 208.406 228.698 207.875 231.469 207.875C236.281 207.875 240.052 209.031 242.781 211.344C245.51 213.635 246.875 216.802 246.875 220.844C246.875 222.927 246.24 224.844 244.969 226.594C243.698 228.344 242.031 229.688 239.969 230.625C242.531 231.542 244.438 232.917 245.688 234.75C246.958 236.583 247.594 238.75 247.594 241.25C247.594 245.292 246.115 248.531 243.156 250.969C240.219 253.406 236.323 254.625 231.469 254.625C226.927 254.625 223.208 253.427 220.312 251.031C217.438 248.635 216 245.469 216 241.531H225.031C225.031 243.24 225.667 244.635 226.938 245.719C228.229 246.802 229.812 247.344 231.688 247.344C233.833 247.344 235.51 246.781 236.719 245.656C237.948 244.51 238.562 243 238.562 241.125C238.562 236.583 236.062 234.312 231.062 234.312H226.281V227.25Z" fill="url(#paint1_linear)"/>
<path d="M248.281 97H217.094V90.8125L231.812 75.125C233.833 72.9167 235.323 70.9896 236.281 69.3438C237.26 67.6979 237.75 66.1354 237.75 64.6562C237.75 62.6354 237.24 61.0521 236.219 59.9062C235.198 58.7396 233.74 58.1562 231.844 58.1562C229.802 58.1562 228.188 58.8646 227 60.2812C225.833 61.6771 225.25 63.5208 225.25 65.8125H216.188C216.188 63.0417 216.844 60.5104 218.156 58.2188C219.49 55.9271 221.365 54.1354 223.781 52.8438C226.198 51.5312 228.938 50.875 232 50.875C236.688 50.875 240.323 52 242.906 54.25C245.51 56.5 246.812 59.6771 246.812 63.7812C246.812 66.0312 246.229 68.3229 245.062 70.6562C243.896 72.9896 241.896 75.7083 239.062 78.8125L228.719 89.7188H248.281V97Z" fill="url(#paint2_linear)"/>
<path d="M398.594 51.0312V58.4688H397.719C393.635 58.5312 390.344 59.5938 387.844 61.6562C385.365 63.7188 383.875 66.5833 383.375 70.25C385.792 67.7917 388.844 66.5625 392.531 66.5625C396.49 66.5625 399.635 67.9792 401.969 70.8125C404.302 73.6458 405.469 77.375 405.469 82C405.469 84.9583 404.823 87.6354 403.531 90.0312C402.26 92.4271 400.448 94.2917 398.094 95.625C395.76 96.9583 393.115 97.625 390.156 97.625C385.365 97.625 381.49 95.9583 378.531 92.625C375.594 89.2917 374.125 84.8438 374.125 79.2812V76.0312C374.125 71.0938 375.052 66.7396 376.906 62.9688C378.781 59.1771 381.458 56.25 384.938 54.1875C388.438 52.1042 392.49 51.0521 397.094 51.0312H398.594ZM389.781 73.8125C388.323 73.8125 387 74.1979 385.812 74.9688C384.625 75.7188 383.75 76.7188 383.188 77.9688V80.7188C383.188 83.7396 383.781 86.1042 384.969 87.8125C386.156 89.5 387.823 90.3438 389.969 90.3438C391.906 90.3438 393.469 89.5833 394.656 88.0625C395.865 86.5208 396.469 84.5312 396.469 82.0938C396.469 79.6146 395.865 77.6146 394.656 76.0938C393.448 74.5729 391.823 73.8125 389.781 73.8125Z" fill="url(#paint3_linear)"/>
<path d="M375.438 231.625L378.062 208.5H403.562V216.031H385.469L384.344 225.812C386.49 224.667 388.771 224.094 391.188 224.094C395.521 224.094 398.917 225.438 401.375 228.125C403.833 230.812 405.062 234.573 405.062 239.406C405.062 242.344 404.438 244.979 403.188 247.312C401.958 249.625 400.188 251.427 397.875 252.719C395.562 253.99 392.833 254.625 389.688 254.625C386.938 254.625 384.385 254.073 382.031 252.969C379.677 251.844 377.812 250.271 376.438 248.25C375.083 246.229 374.365 243.927 374.281 241.344H383.219C383.406 243.24 384.062 244.719 385.188 245.781C386.333 246.823 387.823 247.344 389.656 247.344C391.698 247.344 393.271 246.615 394.375 245.156C395.479 243.677 396.031 241.594 396.031 238.906C396.031 236.323 395.396 234.344 394.125 232.969C392.854 231.594 391.052 230.906 388.719 230.906C386.573 230.906 384.833 231.469 383.5 232.594L382.625 233.406L375.438 231.625Z" fill="url(#paint4_linear)"/>
<path d="M400.812 393.875H405.969V401.156H400.812V411H391.781V401.156H373.125L372.719 395.469L391.688 365.5H400.812V393.875ZM381.719 393.875H391.781V377.812L391.188 378.844L381.719 393.875Z" fill="url(#paint5_linear)"/>
<path d="M246.75 377.594C246.75 379.802 246.198 381.76 245.094 383.469C243.99 385.177 242.469 386.542 240.531 387.562C242.74 388.625 244.49 390.094 245.781 391.969C247.073 393.823 247.719 396.01 247.719 398.531C247.719 402.573 246.344 405.771 243.594 408.125C240.844 410.458 237.104 411.625 232.375 411.625C227.646 411.625 223.896 410.448 221.125 408.094C218.354 405.74 216.969 402.552 216.969 398.531C216.969 396.01 217.615 393.812 218.906 391.938C220.198 390.062 221.938 388.604 224.125 387.562C222.188 386.542 220.667 385.177 219.562 383.469C218.479 381.76 217.938 379.802 217.938 377.594C217.938 373.719 219.229 370.635 221.812 368.344C224.396 366.031 227.906 364.875 232.344 364.875C236.76 364.875 240.26 366.021 242.844 368.312C245.448 370.583 246.75 373.677 246.75 377.594ZM238.656 397.875C238.656 395.896 238.083 394.312 236.938 393.125C235.792 391.938 234.25 391.344 232.312 391.344C230.396 391.344 228.865 391.938 227.719 393.125C226.573 394.292 226 395.875 226 397.875C226 399.812 226.562 401.375 227.688 402.562C228.812 403.75 230.375 404.344 232.375 404.344C234.333 404.344 235.865 403.771 236.969 402.625C238.094 401.479 238.656 399.896 238.656 397.875ZM237.719 378.031C237.719 376.26 237.25 374.844 236.312 373.781C235.375 372.698 234.052 372.156 232.344 372.156C230.656 372.156 229.344 372.677 228.406 373.719C227.469 374.76 227 376.198 227 378.031C227 379.844 227.469 381.302 228.406 382.406C229.344 383.51 230.667 384.062 232.375 384.062C234.083 384.062 235.396 383.51 236.312 382.406C237.25 381.302 237.719 379.844 237.719 378.031Z" fill="url(#paint6_linear)"/>
<path d="M91.0312 213.562L73.4375 254H63.9062L81.5312 215.812H58.9062V208.5H91.0312V213.562Z" fill="url(#paint7_linear)"/>
<path d="M71.6958 363.708C72.8932 360.023 78.1068 360.023 79.3042 363.708L83.0212 375.148C83.5567 376.796 85.0925 377.912 86.8254 377.912H98.8539C102.729 377.912 104.34 382.87 101.205 385.148L91.4738 392.218C90.0719 393.237 89.4852 395.042 90.0207 396.69L93.7377 408.13C94.9351 411.815 90.7172 414.88 87.5824 412.602L77.8511 405.532C76.4492 404.513 74.5508 404.513 73.1489 405.532L63.4176 412.602C60.2828 414.88 56.0649 411.815 57.2623 408.13L60.9793 396.69C61.5148 395.042 60.9281 393.237 59.5262 392.218L49.795 385.148C46.6601 382.87 48.2712 377.912 52.1461 377.912H64.1746C65.9075 377.912 67.4433 376.796 67.9788 375.148L71.6958 363.708Z" fill="url(#paint8_linear)"/>
<defs>
<linearGradient id="paint0_linear" x1="66" y1="57" x2="94" y2="90.5" gradientUnits="userSpaceOnUse">
<stop stop-color="#7200E3"/>
<stop offset="1" stop-color="#FFD600"/>
</linearGradient>
<linearGradient id="paint1_linear" x1="223" y1="214" x2="251" y2="247.5" gradientUnits="userSpaceOnUse">
<stop stop-color="#7200E3"/>
<stop offset="1" stop-color="#FFD600"/>
</linearGradient>
<linearGradient id="paint2_linear" x1="223" y1="57" x2="251" y2="90.5" gradientUnits="userSpaceOnUse">
<stop stop-color="#7200E3"/>
<stop offset="1" stop-color="#FFD600"/>
</linearGradient>
<linearGradient id="paint3_linear" x1="380" y1="57" x2="408" y2="90.5" gradientUnits="userSpaceOnUse">
<stop stop-color="#7200E3"/>
<stop offset="1" stop-color="#FFD600"/>
</linearGradient>
<linearGradient id="paint4_linear" x1="380" y1="214" x2="408" y2="247.5" gradientUnits="userSpaceOnUse">
<stop stop-color="#7200E3"/>
<stop offset="1" stop-color="#FFD600"/>
</linearGradient>
<linearGradient id="paint5_linear" x1="380" y1="371" x2="408" y2="404.5" gradientUnits="userSpaceOnUse">
<stop stop-color="#7200E3"/>
<stop offset="1" stop-color="#FFD600"/>
</linearGradient>
<linearGradient id="paint6_linear" x1="223" y1="371" x2="251" y2="404.5" gradientUnits="userSpaceOnUse">
<stop stop-color="#7200E3"/>
<stop offset="1" stop-color="#FFD600"/>
</linearGradient>
<linearGradient id="paint7_linear" x1="66" y1="214" x2="94" y2="247.5" gradientUnits="userSpaceOnUse">
<stop stop-color="#7200E3"/>
<stop offset="1" stop-color="#FFD600"/>
</linearGradient>
<linearGradient id="paint8_linear" x1="75.5" y1="352" x2="75.5" y2="427" gradientUnits="userSpaceOnUse">
<stop stop-color="#7200E3"/>
<stop offset="1" stop-color="#FFD600"/>
</linearGradient>
</defs>
</svg>
