<svg width="128" height="128" viewBox="0 0 128 128" fill="none" xmlns="http://www.w3.org/2000/svg">
<path d="M46.7726 16.5698C51.6518 11.7016 58.2628 8.96766 65.1553 8.96766C72.0478 8.96766 78.6588 11.7016 83.5381 16.5698C83.9131 16.9449 84.4219 17.1556 84.9523 17.1556C85.4828 17.1556 85.9915 16.9449 86.3666 16.5698C86.7416 16.1947 86.9524 15.686 86.9524 15.1556C86.9524 14.6251 86.7416 14.1164 86.3666 13.7413C80.7366 8.12419 73.1084 4.9696 65.1554 4.9696C57.2025 4.9696 49.5743 8.12419 43.9443 13.7413C43.7567 13.9266 43.6077 14.1472 43.5056 14.3903C43.4036 14.6334 43.3507 14.8943 43.3499 15.158C43.3491 15.4216 43.4004 15.6829 43.5009 15.9266C43.6014 16.1704 43.7491 16.3918 43.9356 16.5783C44.122 16.7647 44.3435 16.9125 44.5872 17.013C44.831 17.1136 45.0922 17.1649 45.3558 17.1641C45.6195 17.1633 45.8804 17.1104 46.1235 17.0084C46.3667 16.9064 46.5872 16.7574 46.7726 16.5698V16.5698Z" fill="url(#paint0_linear)"/>
<path d="M78.5127 23.5949C78.9083 23.595 79.295 23.4777 79.6239 23.2579C79.9528 23.0382 80.2091 22.7258 80.3605 22.3603C80.5119 21.9949 80.5515 21.5927 80.4743 21.2048C80.3972 20.8168 80.2067 20.4604 79.9269 20.1807C76.0062 16.2689 70.6938 14.072 65.1553 14.072C59.6168 14.072 54.3045 16.2689 50.3837 20.1807C50.0124 20.5565 49.8048 21.064 49.8064 21.5923C49.808 22.1207 50.0186 22.6269 50.3921 23.0005C50.7657 23.3741 51.2719 23.5847 51.8002 23.5864C52.3286 23.588 52.8361 23.3805 53.2119 23.0092C56.382 19.8463 60.6772 18.07 65.1553 18.07C69.6334 18.07 73.9286 19.8463 77.0987 23.0092C77.2842 23.1952 77.5046 23.3427 77.7472 23.4432C77.9899 23.5437 78.25 23.5953 78.5127 23.5949V23.5949Z" fill="url(#paint1_linear)"/>
<path d="M57.687 27.484C57.4994 27.6693 57.3503 27.8898 57.2483 28.133C57.1463 28.3761 57.0934 28.637 57.0925 28.9006C57.0917 29.1643 57.1431 29.4255 57.2436 29.6693C57.3441 29.913 57.4918 30.1345 57.6783 30.321C57.8647 30.5074 58.0861 30.6552 58.3299 30.7557C58.5736 30.8562 58.8348 30.9076 59.0985 30.9068C59.3622 30.906 59.6231 30.8531 59.8662 30.7511C60.1094 30.6491 60.3299 30.5 60.5152 30.3125C61.7469 29.0838 63.4156 28.3937 65.1554 28.3937C66.8951 28.3937 68.5638 29.0838 69.7955 30.3125C69.9812 30.4983 70.2017 30.6456 70.4444 30.7462C70.6871 30.8468 70.9472 30.8986 71.2099 30.8986C71.4726 30.8987 71.7327 30.847 71.9754 30.7465C72.2182 30.646 72.4387 30.4987 72.6245 30.313C72.8103 30.1272 72.9577 29.9068 73.0582 29.6641C73.1588 29.4214 73.2106 29.1613 73.2106 28.8986C73.2107 28.6359 73.159 28.3757 73.0585 28.133C72.958 27.8903 72.8107 27.6698 72.625 27.484C70.6427 25.5057 67.9565 24.3947 65.156 24.3947C62.3554 24.3947 59.6693 25.5057 57.687 27.484V27.484Z" fill="url(#paint2_linear)"/>
<path d="M104.535 76H66.9999V71.9407C67.0064 70.5409 66.7366 69.1536 66.2061 67.8583C65.6756 66.5629 64.8947 65.385 63.9082 64.3919C62.9217 63.3988 61.749 62.6101 60.4572 62.0709C59.1654 61.5318 57.7799 61.2528 56.3802 61.25H50.6234C48.8332 61.25 47.1163 60.5388 45.8504 59.2729C44.5846 58.0071 43.8734 56.2902 43.8734 54.5C43.8734 52.7097 44.5846 50.9928 45.8504 49.727C47.1163 48.4611 48.8332 47.75 50.6234 47.75H56.3802C57.774 47.7599 59.1559 47.4934 60.446 46.9659C61.7362 46.4383 62.9089 45.6603 63.8965 44.6767C64.8841 43.6931 65.6668 42.5234 66.1995 41.2354C66.7322 39.9474 67.0042 38.5665 66.9999 37.1727V35.3667C66.9999 34.8363 66.7892 34.3276 66.4141 33.9525C66.0391 33.5774 65.5303 33.3667 64.9999 33.3667C64.4695 33.3667 63.9608 33.5774 63.5857 33.9525C63.2106 34.3276 62.9999 34.8363 62.9999 35.3667V37.1727C63.0048 38.0414 62.8366 38.9023 62.5051 39.7053C62.1736 40.5083 61.6855 41.2372 61.0693 41.8495C60.453 42.4618 59.721 42.9452 58.9159 43.2715C58.1108 43.5978 57.2488 43.7604 56.3802 43.75H50.6234C47.7723 43.75 45.038 44.8825 43.022 46.8986C41.006 48.9146 39.8734 51.6489 39.8734 54.5C39.8734 57.351 41.006 60.0853 43.022 62.1013C45.038 64.1174 47.7723 65.25 50.6234 65.25H56.3802C57.2548 65.2522 58.1204 65.4273 58.9272 65.7652C59.734 66.1031 60.466 66.5972 61.0812 67.219C61.6963 67.8407 62.1826 68.578 62.5118 69.3883C62.8411 70.1986 63.007 71.0661 62.9999 71.9407V76H23.4652C21.406 76.013 19.4364 76.8434 17.9895 78.3086C16.5426 79.7738 15.737 81.7538 15.7499 83.813V115.268C15.7451 116.283 15.9412 117.29 16.327 118.229C16.7128 119.168 17.2806 120.021 17.9978 120.74C18.715 121.459 19.5673 122.029 20.5057 122.416C21.444 122.804 22.4498 123.003 23.4652 123H104.535C105.55 123.003 106.556 122.804 107.494 122.416C108.433 122.029 109.285 121.459 110.002 120.74C110.719 120.021 111.287 119.168 111.673 118.229C112.059 117.29 112.255 116.283 112.25 115.268V83.813C112.263 81.7538 111.457 79.7738 110.01 78.3086C108.563 76.8434 106.594 76.013 104.535 76V76ZM108.25 115.223C108.25 116.225 107.852 117.186 107.144 117.894C106.436 118.602 105.475 119 104.473 119H23.5264C22.5248 119 21.5643 118.602 20.856 117.894C20.1478 117.186 19.7499 116.225 19.7499 115.223V83.7764C19.7499 82.7749 20.1478 81.8143 20.856 81.1061C21.5643 80.3978 22.5248 80 23.5264 80H104.473C105.475 80 106.436 80.3978 107.144 81.1061C107.852 81.8143 108.25 82.7749 108.25 83.7764V115.223Z" fill="url(#paint3_linear)"/>
<path d="M104.535 76H66.9999V71.9407C67.0064 70.5409 66.7366 69.1536 66.2061 67.8583C65.6756 66.5629 64.8947 65.385 63.9082 64.3919C62.9217 63.3988 61.749 62.6101 60.4572 62.0709C59.1654 61.5318 57.7799 61.2528 56.3802 61.25H50.6234C48.8332 61.25 47.1163 60.5388 45.8504 59.2729C44.5846 58.0071 43.8734 56.2902 43.8734 54.5C43.8734 52.7097 44.5846 50.9928 45.8504 49.727C47.1163 48.4611 48.8332 47.75 50.6234 47.75H56.3802C57.774 47.7599 59.1559 47.4934 60.446 46.9659C61.7362 46.4383 62.9089 45.6603 63.8965 44.6767C64.8841 43.6931 65.6668 42.5234 66.1995 41.2354C66.7322 39.9474 67.0042 38.5665 66.9999 37.1727V35.3667C66.9999 34.8363 66.7892 34.3276 66.4141 33.9525C66.0391 33.5774 65.5303 33.3667 64.9999 33.3667C64.4695 33.3667 63.9608 33.5774 63.5857 33.9525C63.2106 34.3276 62.9999 34.8363 62.9999 35.3667V37.1727C63.0048 38.0414 62.8366 38.9023 62.5051 39.7053C62.1736 40.5083 61.6855 41.2372 61.0693 41.8495C60.453 42.4618 59.721 42.9452 58.9159 43.2715C58.1108 43.5978 57.2488 43.7604 56.3802 43.75H50.6234C47.7723 43.75 45.038 44.8825 43.022 46.8986C41.006 48.9146 39.8734 51.6489 39.8734 54.5C39.8734 57.351 41.006 60.0853 43.022 62.1013C45.038 64.1174 47.7723 65.25 50.6234 65.25H56.3802C57.2548 65.2522 58.1204 65.4273 58.9272 65.7652C59.734 66.1031 60.466 66.5972 61.0812 67.219C61.6963 67.8407 62.1826 68.578 62.5118 69.3883C62.8411 70.1986 63.007 71.0661 62.9999 71.9407V76H23.4652C21.406 76.013 19.4364 76.8434 17.9895 78.3086C16.5426 79.7738 15.737 81.7538 15.7499 83.813V115.268C15.7451 116.283 15.9412 117.29 16.327 118.229C16.7128 119.168 17.2806 120.021 17.9978 120.74C18.715 121.459 19.5673 122.029 20.5057 122.416C21.444 122.804 22.4498 123.003 23.4652 123H104.535C105.55 123.003 106.556 122.804 107.494 122.416C108.433 122.029 109.285 121.459 110.002 120.74C110.719 120.021 111.287 119.168 111.673 118.229C112.059 117.29 112.255 116.283 112.25 115.268V83.813C112.263 81.7538 111.457 79.7738 110.01 78.3086C108.563 76.8434 106.594 76.013 104.535 76V76ZM108.25 115.223C108.25 116.225 107.852 117.186 107.144 117.894C106.436 118.602 105.475 119 104.473 119H23.5264C22.5248 119 21.5643 118.602 20.856 117.894C20.1478 117.186 19.7499 116.225 19.7499 115.223V83.7764C19.7499 82.7749 20.1478 81.8143 20.856 81.1061C21.5643 80.3978 22.5248 80 23.5264 80H104.473C105.475 80 106.436 80.3978 107.144 81.1061C107.852 81.8143 108.25 82.7749 108.25 83.7764V115.223Z" fill="url(#paint4_linear)"/>
<path d="M76.7 108.75H51.1877C50.6573 108.75 50.1486 108.961 49.7735 109.336C49.3985 109.711 49.1877 110.22 49.1877 110.75C49.1877 111.28 49.3985 111.789 49.7735 112.164C50.1486 112.539 50.6573 112.75 51.1877 112.75H76.7C77.2304 112.75 77.7391 112.539 78.1142 112.164C78.4893 111.789 78.7 111.28 78.7 110.75C78.7 110.22 78.4893 109.711 78.1142 109.336C77.7391 108.961 77.2304 108.75 76.7 108.75Z" fill="url(#paint5_linear)"/>
<path d="M39.8799 86.5H28.8174C28.287 86.5 27.7782 86.7107 27.4032 87.0858C27.0281 87.4609 26.8174 87.9696 26.8174 88.5C26.8174 89.0304 27.0281 89.5391 27.4032 89.9142C27.7782 90.2893 28.287 90.5 28.8174 90.5H39.8799C40.4103 90.5 40.919 90.2893 41.2941 89.9142C41.6692 89.5391 41.8799 89.0304 41.8799 88.5C41.8799 87.9696 41.6692 87.4609 41.2941 87.0858C40.919 86.7107 40.4103 86.5 39.8799 86.5V86.5Z" fill="url(#paint6_linear)"/>
<path d="M47.9607 90.5H59.0232C59.5536 90.5 60.0623 90.2893 60.4374 89.9142C60.8125 89.5391 61.0232 89.0304 61.0232 88.5C61.0232 87.9696 60.8125 87.4609 60.4374 87.0858C60.0623 86.7107 59.5536 86.5 59.0232 86.5H47.9607C47.4303 86.5 46.9216 86.7107 46.5465 87.0858C46.1714 87.4609 45.9607 87.9696 45.9607 88.5C45.9607 89.0304 46.1714 89.5391 46.5465 89.9142C46.9216 90.2893 47.4303 90.5 47.9607 90.5Z" fill="url(#paint7_linear)"/>
<path d="M79.9263 86.5H68.8638C68.3333 86.5 67.8246 86.7107 67.4496 87.0858C67.0745 87.4609 66.8638 87.9696 66.8638 88.5C66.8638 89.0304 67.0745 89.5391 67.4496 89.9142C67.8246 90.2893 68.3333 90.5 68.8638 90.5H79.9263C80.4567 90.5 80.9654 90.2893 81.3405 89.9142C81.7156 89.5391 81.9263 89.0304 81.9263 88.5C81.9263 87.9696 81.7156 87.4609 81.3405 87.0858C80.9654 86.7107 80.4567 86.5 79.9263 86.5Z" fill="url(#paint8_linear)"/>
<path d="M99.0698 86.5H88.0073C87.4769 86.5 86.9682 86.7107 86.5931 87.0858C86.218 87.4609 86.0073 87.9696 86.0073 88.5C86.0073 89.0304 86.218 89.5391 86.5931 89.9142C86.9682 90.2893 87.4769 90.5 88.0073 90.5H99.0698C99.6003 90.5 100.109 90.2893 100.484 89.9142C100.859 89.5391 101.07 89.0304 101.07 88.5C101.07 87.9696 100.859 87.4609 100.484 87.0858C100.109 86.7107 99.6003 86.5 99.0698 86.5Z" fill="url(#paint9_linear)"/>
<path d="M39.8799 97.75H28.8174C28.287 97.75 27.7782 97.9607 27.4032 98.3358C27.0281 98.7109 26.8174 99.2196 26.8174 99.75C26.8174 100.28 27.0281 100.789 27.4032 101.164C27.7782 101.539 28.287 101.75 28.8174 101.75H39.8799C40.4103 101.75 40.919 101.539 41.2941 101.164C41.6692 100.789 41.8799 100.28 41.8799 99.75C41.8799 99.2196 41.6692 98.7109 41.2941 98.3358C40.919 97.9607 40.4103 97.75 39.8799 97.75V97.75Z" fill="url(#paint10_linear)"/>
<path d="M61.0232 99.75C61.0232 99.2196 60.8125 98.7109 60.4374 98.3358C60.0623 97.9607 59.5536 97.75 59.0232 97.75H47.9607C47.4303 97.75 46.9216 97.9607 46.5465 98.3358C46.1714 98.7109 45.9607 99.2196 45.9607 99.75C45.9607 100.28 46.1714 100.789 46.5465 101.164C46.9216 101.539 47.4303 101.75 47.9607 101.75H59.0232C59.5536 101.75 60.0623 101.539 60.4374 101.164C60.8125 100.789 61.0232 100.28 61.0232 99.75Z" fill="url(#paint11_linear)"/>
<path d="M79.9263 97.75H68.8638C68.3333 97.75 67.8246 97.9607 67.4496 98.3358C67.0745 98.7109 66.8638 99.2196 66.8638 99.75C66.8638 100.28 67.0745 100.789 67.4496 101.164C67.8246 101.539 68.3333 101.75 68.8638 101.75H79.9263C80.4567 101.75 80.9654 101.539 81.3405 101.164C81.7156 100.789 81.9263 100.28 81.9263 99.75C81.9263 99.2196 81.7156 98.7109 81.3405 98.3358C80.9654 97.9607 80.4567 97.75 79.9263 97.75Z" fill="url(#paint12_linear)"/>
<path d="M99.0698 97.75H88.0073C87.4769 97.75 86.9682 97.9607 86.5931 98.3358C86.218 98.7109 86.0073 99.2196 86.0073 99.75C86.0073 100.28 86.218 100.789 86.5931 101.164C86.9682 101.539 87.4769 101.75 88.0073 101.75H99.0698C99.6003 101.75 100.109 101.539 100.484 101.164C100.859 100.789 101.07 100.28 101.07 99.75C101.07 99.2196 100.859 98.7109 100.484 98.3358C100.109 97.9607 99.6003 97.75 99.0698 97.75Z" fill="url(#paint13_linear)"/>
<defs>
<linearGradient id="paint0_linear" x1="65.1553" y1="1.7863" x2="65.1553" y2="123.468" gradientUnits="userSpaceOnUse">
<stop stop-color="#930DD1"/>
<stop offset="1" stop-color="#00ACEA"/>
</linearGradient>
<linearGradient id="paint1_linear" x1="65.1625" y1="11.5861" x2="65.1625" y2="106.609" gradientUnits="userSpaceOnUse">
<stop stop-color="#930DD1"/>
<stop offset="1" stop-color="#00ACEA"/>
</linearGradient>
<linearGradient id="paint2_linear" x1="65.1531" y1="22.6947" x2="65.1531" y2="87.6752" gradientUnits="userSpaceOnUse">
<stop stop-color="#930DD1"/>
<stop offset="1" stop-color="#00ACEA"/>
</linearGradient>
<linearGradient id="paint3_linear" x1="24719.8" y1="673.796" x2="24719.8" y2="44300.6" gradientUnits="userSpaceOnUse">
<stop stop-color="#FFD600"/>
<stop offset="1" stop-color="#7200E3"/>
</linearGradient>
<linearGradient id="paint4_linear" x1="70.5" y1="129.5" x2="64" y2="36.5" gradientUnits="userSpaceOnUse">
<stop stop-color="#FFD600"/>
<stop offset="1" stop-color="#7200E3"/>
</linearGradient>
<linearGradient id="paint5_linear" x1="7597.65" y1="137.33" x2="7597.65" y2="2084.23" gradientUnits="userSpaceOnUse">
<stop stop-color="#FFD600"/>
<stop offset="1" stop-color="#7200E3"/>
</linearGradient>
<linearGradient id="paint6_linear" x1="2096.33" y1="115.08" x2="2096.33" y2="2061.98" gradientUnits="userSpaceOnUse">
<stop stop-color="#FFD600"/>
<stop offset="1" stop-color="#7200E3"/>
</linearGradient>
<linearGradient id="paint7_linear" x1="3268.85" y1="115.08" x2="3268.85" y2="2061.98" gradientUnits="userSpaceOnUse">
<stop stop-color="#FFD600"/>
<stop offset="1" stop-color="#7200E3"/>
</linearGradient>
<linearGradient id="paint8_linear" x1="4549.16" y1="115.08" x2="4549.16" y2="2061.98" gradientUnits="userSpaceOnUse">
<stop stop-color="#FFD600"/>
<stop offset="1" stop-color="#7200E3"/>
</linearGradient>
<linearGradient id="paint9_linear" x1="5721.7" y1="115.08" x2="5721.7" y2="2061.98" gradientUnits="userSpaceOnUse">
<stop stop-color="#FFD600"/>
<stop offset="1" stop-color="#7200E3"/>
</linearGradient>
<linearGradient id="paint10_linear" x1="2096.33" y1="126.33" x2="2096.33" y2="2073.23" gradientUnits="userSpaceOnUse">
<stop stop-color="#FFD600"/>
<stop offset="1" stop-color="#7200E3"/>
</linearGradient>
<linearGradient id="paint11_linear" x1="3268.85" y1="126.33" x2="3268.85" y2="2073.23" gradientUnits="userSpaceOnUse">
<stop stop-color="#FFD600"/>
<stop offset="1" stop-color="#7200E3"/>
</linearGradient>
<linearGradient id="paint12_linear" x1="4549.16" y1="126.33" x2="4549.16" y2="2073.23" gradientUnits="userSpaceOnUse">
<stop stop-color="#FFD600"/>
<stop offset="1" stop-color="#7200E3"/>
</linearGradient>
<linearGradient id="paint13_linear" x1="5721.7" y1="126.33" x2="5721.7" y2="2073.23" gradientUnits="userSpaceOnUse">
<stop stop-color="#FFD600"/>
<stop offset="1" stop-color="#7200E3"/>
</linearGradient>
</defs>
</svg>
