<svg xmlns="http://www.w3.org/2000/svg" viewBox="0 0 228.98 214.16"><defs><style>.a{fill:#016e45;}.b{fill:#2d7b4a;}</style></defs><title>logo_bntu_2018</title><rect class="a" x="43.85" y="106.86" width="142.27" height="7.27"/><rect class="a" x="43.85" y="44.76" width="142.27" height="4.58"/><rect class="a" x="74.33" y="53.27" width="5.16" height="48.84"/><rect class="a" x="48.24" y="53.27" width="6.57" height="48.9"/><rect class="a" x="175.14" y="53.27" width="6.57" height="48.9"/><rect class="a" x="160.78" y="53.27" width="9.91" height="40.07"/><rect class="a" x="160.78" y="97.01" width="9.91" height="5.15"/><rect class="a" x="135.4" y="53.27" width="9.91" height="40.07"/><rect class="a" x="135.4" y="97.05" width="9.91" height="5.15"/><rect class="a" x="110.02" y="53.27" width="9.91" height="40.07"/><rect class="a" x="110.02" y="97.01" width="9.91" height="5.15"/><rect class="a" x="84.64" y="53.27" width="9.91" height="40.07"/><rect class="a" x="84.64" y="97.05" width="9.91" height="5.15"/><rect class="a" x="59.26" y="53.27" width="9.91" height="40.07"/><rect class="a" x="59.26" y="97.05" width="9.91" height="5.15"/><rect class="a" x="150.47" y="53.27" width="5.16" height="48.84"/><rect class="a" x="125.09" y="53.27" width="5.16" height="48.84"/><rect class="a" x="99.71" y="53.27" width="5.16" height="48.84"/><polygon class="a" points="46.54 41.37 45.51 37.77 114.88 11.85 184.44 37.77 183.42 41.37 46.54 41.37"/><polygon class="a" points="42.02 36.65 40.97 33.84 114.82 6.17 188.01 33.36 186.96 36.17 114.82 9.37 42.02 36.65"/><polygon class="a" points="35.33 33.81 33.93 30.06 114.83 0 195.05 30.06 193.65 33.81 114.82 4.27 35.33 33.81"/><path d="M38.67,146H32.48l-.55-6.12H13.55V156H26.7q8.57,0,13.27,4.21t4.71,11.39A14.93,14.93,0,0,1,40,183.14q-4.72,4.34-13.26,4.34H0v-4.61l6-1v-42l-6-1v-4.65H38.67ZM13.55,161.66v20.18H26.7q5.42,0,8.09-2.93a10.56,10.56,0,0,0,2.67-7.4,9.78,9.78,0,0,0-2.67-7.09q-2.67-2.77-8.09-2.77Z"/><path d="M59.92,138.81v-4.65H79.07v4.65l-6,1v18.42H99V139.84l-6-1v-4.65h19.15v4.65l-6,1v42l6,1v4.61H93v-4.61l6-1V163.94H73.1v17.91l6,1v4.61H59.92v-4.61l6-1v-42Z"/><path d="M170.27,134.16V146h-6.15l-.55-6.12H151.74v42l6,1v4.61H138.55v-4.61l6-1v-42H132.66l-.51,6.12H126V134.16Z"/><path d="M229,138.81l-4.17.62-16.44,39.29a22.1,22.1,0,0,1-4.71,7.16q-2.55,2.36-8.11,2.36-.92,0-2.14-.11a9.08,9.08,0,0,1-1.56-.22l.22-5.46a12,12,0,0,0,1.57.11l1.83,0a4.67,4.67,0,0,0,3.72-1.3,20.57,20.57,0,0,0,2.54-4.27l1.43-3-15.49-34.53-4.32-.66v-4.65h16.74v4.65l-4.47.7,8.09,19.59,2.67,6.88h.22l10-26.44-4.65-.73v-4.65h17Z"/><rect class="b" x="62.66" y="207.93" width="14.66" height="1.67"/><rect class="b" x="151.66" y="207.93" width="14.66" height="1.67"/><polygon class="b" points="88.98 212.73 90.79 212.51 90.79 205.27 88.96 205.27 88.96 204.05 92.92 203.33 92.92 212.51 94.72 212.73 94.72 214.01 88.98 214.01 88.98 212.73"/><path class="b" d="M105.57,212.52a1.69,1.69,0,0,0,1.38-.66,3.09,3.09,0,0,0,.53-2v-.16a2.38,2.38,0,0,1-.86.7,2.44,2.44,0,0,1-1.07.24,3,3,0,0,1-2.35-1,4,4,0,0,1-.85-2.7,3.85,3.85,0,0,1,1-2.72,3.35,3.35,0,0,1,2.57-1.1,3.42,3.42,0,0,1,2.66,1.13,4.55,4.55,0,0,1,1,3.16v2.32a4.4,4.4,0,0,1-1.13,3.23,3.91,3.91,0,0,1-2.91,1.15,6,6,0,0,1-1.15-.11,5.06,5.06,0,0,1-1.09-.33l.24-1.55a5.63,5.63,0,0,0,1,.27,5.79,5.79,0,0,0,1,.08m.34-3.42a2,2,0,0,0,.94-.2,1.68,1.68,0,0,0,.63-.54v-1.14a3.2,3.2,0,0,0-.41-1.78,1.28,1.28,0,0,0-1.11-.61,1.21,1.21,0,0,0-1.05.63,2.76,2.76,0,0,0-.41,1.53,2.84,2.84,0,0,0,.36,1.54,1.17,1.17,0,0,0,1.05.57"/><path class="b" d="M117.56,214v-1.4l3.45-3.7a8.39,8.39,0,0,0,1.06-1.45,2.37,2.37,0,0,0,.31-1.1,1.65,1.65,0,0,0-.36-1.1,1.27,1.27,0,0,0-1-.43,1.33,1.33,0,0,0-1.13.5,2.14,2.14,0,0,0-.39,1.34h-2.08v0a3.22,3.22,0,0,1,.95-2.45,3.57,3.57,0,0,1,2.66-1,3.72,3.72,0,0,1,2.6.86,2.94,2.94,0,0,1,.95,2.29,3.23,3.23,0,0,1-.53,1.79,16.93,16.93,0,0,1-1.76,2.14l-1.9,2.08,0,0h2.77l.09-1.06h1.63V214Z"/><path class="b" d="M140,209.85a4.71,4.71,0,0,1-1,3.22,3.72,3.72,0,0,1-5.28,0,4.7,4.7,0,0,1-1-3.22V207.5a4.74,4.74,0,0,1,1-3.22,3.7,3.7,0,0,1,5.27,0,4.71,4.71,0,0,1,1,3.22Zm-2.13-2.57a3.52,3.52,0,0,0-.38-1.86,1.32,1.32,0,0,0-2.2,0,3.58,3.58,0,0,0-.37,1.86v2.78a3.57,3.57,0,0,0,.38,1.88,1.23,1.23,0,0,0,1.11.59,1.21,1.21,0,0,0,1.09-.59,3.6,3.6,0,0,0,.37-1.88Z"/></svg>