<svg width="186" height="186" viewBox="0 0 186 186" fill="none" xmlns="http://www.w3.org/2000/svg">
<path d="M93.5012 51.405C84.7128 48.9176 75.3125 49.7988 67.1396 53.8764C66.7523 54.0712 66.4072 54.3403 66.1239 54.6684C65.8406 54.9965 65.6247 55.3772 65.4885 55.7888C65.3524 56.2003 65.2986 56.6347 65.3303 57.067C65.362 57.4993 65.4785 57.9212 65.6732 58.3085C65.868 58.6958 66.1371 59.0409 66.4652 59.3242C66.7933 59.6075 67.174 59.8234 67.5856 59.9596C67.9971 60.0957 68.4315 60.1495 68.8638 60.1178C69.2961 60.0861 69.718 59.9696 70.1053 59.7748C76.8095 56.4378 84.5173 55.721 91.7218 57.7648C92.5442 57.9541 93.4079 57.8207 94.1348 57.3921C94.8617 56.9635 95.3965 56.2723 95.6289 55.461C95.8613 54.6498 95.7736 53.7802 95.3838 53.0317C94.9941 52.2832 94.3321 51.7128 93.5342 51.438L93.5012 51.405ZM57.5835 60.7964L57.3199 61.0929C56.8146 61.6202 56.3204 62.1584 55.8371 62.7076C55.269 63.3718 54.9881 64.2344 55.056 65.1058C55.124 65.9771 55.5353 66.7857 56.1995 67.3538C56.8637 67.9219 57.7264 68.2028 58.5977 68.1348C59.4691 68.0669 60.2777 67.6555 60.8458 66.9913C61.2412 66.53 61.6366 66.1016 62.2627 65.4755C62.8026 64.8452 63.0846 64.0343 63.0526 63.205C63.0206 62.3756 62.6768 61.589 62.0899 61.0021C61.5031 60.4152 60.7164 60.0714 59.887 60.0394C59.0577 60.0074 58.2469 60.2895 57.6165 60.8293L57.5835 60.7964ZM47.8297 84.1923C48.1863 83.3968 48.2132 82.4924 47.9044 81.6771C47.5956 80.8619 46.9763 80.2022 46.1821 79.8426C41.0084 77.5666 35.2401 77.0137 29.7282 78.2656C24.2163 79.5175 19.2527 82.5078 15.5697 86.7955C15.2486 87.1177 14.9977 87.5029 14.8328 87.9269C14.6679 88.3509 14.5925 88.8044 14.6115 89.2589C14.6305 89.7134 14.7433 90.159 14.943 90.5678C15.1427 90.9765 15.4248 91.3395 15.7716 91.6339C16.1185 91.9282 16.5225 92.1476 16.9583 92.2781C17.394 92.4086 17.8521 92.4475 18.3036 92.3923C18.7552 92.3372 19.1904 92.1891 19.5819 91.9574C19.9734 91.7257 20.3127 91.4155 20.5784 91.0463C22.7931 88.4096 25.6694 86.4096 28.9122 85.2514C32.1551 84.0933 35.6476 83.8187 39.0315 84.4559C40.5761 84.7334 42.081 85.1982 43.513 85.8399C44.3049 86.1862 45.2011 86.2076 46.0085 85.8994C46.816 85.5912 47.47 84.9781 47.8297 84.1923ZM13.8233 95.5937C12.9713 95.4072 12.0801 95.5661 11.3451 96.0355C10.6101 96.505 10.0911 97.2466 9.90197 98.098C9.50708 99.928 9.30825 101.795 9.30884 103.667C9.30884 104.541 9.65601 105.379 10.274 105.997C10.892 106.615 11.7301 106.962 12.604 106.962C13.478 106.962 14.3161 106.615 14.9341 105.997C15.5521 105.379 15.8992 104.541 15.8992 103.667C15.8928 102.261 16.0364 100.858 16.3276 99.482C16.5044 98.6349 16.3408 97.7522 15.8722 97.0247C15.4036 96.2971 14.6677 95.7831 13.8233 95.5937V95.5937Z" fill="url(#paint0_linear)"/>
<path d="M162.338 63.0372C162.36 54.4448 159.621 46.0726 154.526 39.1541C149.43 32.2356 142.247 27.1366 134.035 24.6084C125.823 22.0802 117.016 22.2564 108.912 25.1112C100.808 27.9659 93.8344 33.3482 89.0198 40.465C87.1822 40.251 85.334 40.141 83.4839 40.1355C74.2959 40.1297 65.2984 42.755 57.5553 47.7011C49.8121 52.6471 43.6472 59.707 39.7895 68.0459C38.4988 67.8965 37.2006 67.8195 35.9012 67.8152C26.3796 67.8152 17.248 71.5976 10.5152 78.3304C3.78244 85.0632 0 94.1948 0 103.716C0 113.238 3.78244 122.37 10.5152 129.102C17.248 135.835 26.3796 139.618 35.9012 139.618C36.7752 139.618 37.6133 139.27 38.2313 138.652C38.8492 138.035 39.1964 137.196 39.1964 136.322C39.1964 135.448 38.8492 134.61 38.2313 133.992C37.6133 133.374 36.7752 133.027 35.9012 133.027C30.5997 133.038 25.3947 131.609 20.8411 128.894C16.2876 126.179 12.5562 122.279 10.0448 117.61C7.53336 112.941 6.33605 107.678 6.58049 102.382C6.82494 97.0863 8.50198 91.956 11.4328 87.5382C14.3637 83.1205 18.4384 79.5809 23.2227 77.2968C28.007 75.0127 33.3215 74.0698 38.5995 74.5685C43.8776 75.0673 48.9213 76.989 53.1931 80.1288C57.4649 83.2686 60.8045 87.5088 62.856 92.3974C63.0226 92.7977 63.2664 93.1612 63.5735 93.4673C63.8806 93.7733 64.2449 94.0159 64.6458 94.1811C65.0466 94.3464 65.4761 94.431 65.9097 94.4303C66.3432 94.4295 66.7724 94.3434 67.1727 94.1768C67.5729 94.0102 67.9365 93.7664 68.2425 93.4593C68.5486 93.1522 68.7912 92.7878 68.9564 92.387C69.1216 91.9861 69.2063 91.5567 69.2055 91.1231C69.2048 90.6895 69.1187 90.2604 68.9521 89.8601C66.9002 85.0154 63.8183 80.6755 59.9204 77.1418C56.0225 73.6081 51.402 70.9652 46.3799 69.3969C49.9018 62.5954 55.2255 56.8928 61.7691 52.9123C68.3128 48.9317 75.8247 46.8264 83.4839 46.8264C91.1432 46.8264 98.655 48.9317 105.199 52.9123C111.742 56.8928 117.066 62.5954 120.588 69.3969C115.557 70.9646 110.928 73.6106 107.024 77.1504C103.119 80.6903 100.034 85.0388 97.9828 89.893C97.6463 90.7014 97.6448 91.6104 97.9785 92.4199C98.3122 93.2295 98.9538 93.8733 99.7622 94.2098C100.571 94.5462 101.48 94.5478 102.289 94.2141C103.099 93.8804 103.742 93.2387 104.079 92.4304C106.118 87.5368 109.448 83.2884 113.712 80.1382C117.976 76.988 123.015 75.0539 128.292 74.5423C133.569 74.0307 138.885 74.9607 143.675 77.2331C148.465 79.5055 152.548 83.0352 155.49 87.4458C158.432 91.8564 160.121 96.9826 160.379 102.278C160.636 107.573 159.451 112.839 156.951 117.514C154.451 122.189 150.729 126.098 146.183 128.824C141.636 131.551 136.434 132.992 131.133 132.994C130.259 132.994 129.42 133.341 128.802 133.959C128.184 134.577 127.837 135.416 127.837 136.289C127.837 137.163 128.184 138.002 128.802 138.62C129.42 139.238 130.259 139.585 131.133 139.585C138.013 139.606 144.754 137.646 150.551 133.941C156.349 130.235 160.957 124.939 163.827 118.686C166.696 112.432 167.706 105.485 166.735 98.6736C165.764 91.862 162.854 85.4736 158.351 80.2711C160.964 74.9012 162.327 69.0092 162.338 63.0372V63.0372ZM127.277 67.98C124.321 61.6092 120.004 55.9644 114.629 51.4437C109.255 46.923 102.953 43.6366 96.1704 41.8161C100.553 36.4537 106.487 32.5777 113.158 30.7191C119.83 28.8605 126.913 29.1102 133.437 31.434C139.961 33.7578 145.606 38.042 149.601 43.6997C153.595 49.3574 155.742 56.1117 155.748 63.0372C155.761 67.292 154.956 71.5097 153.375 75.4601C149.722 72.5669 145.532 70.4252 141.047 69.1584C136.562 67.8915 131.871 67.5247 127.244 68.0788L127.277 67.98Z" fill="url(#paint1_linear)"/>
<path d="M138.645 39.0481C134.324 35.4784 128.983 33.3676 123.389 33.0179C122.956 32.9912 122.522 33.0501 122.112 33.1914C121.702 33.3328 121.324 33.5536 120.999 33.8414C120.675 34.1292 120.41 34.4782 120.221 34.8684C120.031 35.2586 119.921 35.6824 119.896 36.1154C119.869 36.5483 119.928 36.9822 120.069 37.3923C120.211 37.8024 120.432 38.1805 120.719 38.505C121.007 38.8295 121.356 39.094 121.746 39.2834C122.137 39.4727 122.56 39.5831 122.993 39.6083C127.112 39.847 131.052 41.3679 134.263 43.958L134.559 44.2216C135.218 44.7499 136.054 45.0054 136.895 44.9355C137.736 44.8656 138.518 44.4756 139.08 43.8459C139.642 43.2163 139.941 42.3949 139.916 41.5513C139.89 40.7077 139.541 39.906 138.942 39.3117L138.645 39.0481ZM112.482 35.1268C111.199 35.7082 109.965 36.3914 108.791 37.1699C108.358 37.3619 107.971 37.6451 107.657 38.0002C107.343 38.3553 107.11 38.7739 106.972 39.2275C106.835 39.6811 106.797 40.1589 106.861 40.6285C106.925 41.0981 107.09 41.5483 107.344 41.9484C107.598 42.3485 107.935 42.6892 108.333 42.9471C108.73 43.205 109.179 43.3741 109.648 43.4429C110.117 43.5116 110.595 43.4784 111.05 43.3455C111.505 43.2127 111.926 42.9832 112.284 42.6728C113.165 42.0946 114.09 41.5878 115.052 41.1571C115.852 40.7987 116.476 40.1374 116.788 39.3186C117.1 38.4998 117.074 37.5906 116.716 36.7909C116.358 35.9913 115.696 35.3667 114.878 35.0546C114.059 34.7425 113.149 34.7685 112.35 35.1268H112.482ZM122.169 19.7712C123.043 19.7712 123.882 19.424 124.5 18.8061C125.118 18.1881 125.465 17.3499 125.465 16.476V3.2952C125.465 2.42126 125.118 1.58311 124.5 0.965143C123.882 0.347173 123.043 0 122.169 0C121.296 0 120.457 0.347173 119.839 0.965143C119.221 1.58311 118.874 2.42126 118.874 3.2952V16.476C118.874 17.3499 119.221 18.1881 119.839 18.8061C120.457 19.424 121.296 19.7712 122.169 19.7712ZM156.077 32.4907C156.511 32.4932 156.941 32.4101 157.342 32.2461C157.744 32.0821 158.109 31.8405 158.417 31.5351L167.61 22.3415C168.15 21.7111 168.432 20.9002 168.4 20.0709C168.368 19.2416 168.024 18.4549 167.438 17.868C166.851 17.2812 166.064 16.9374 165.235 16.9053C164.405 16.8733 163.594 17.1554 162.964 17.6952L153.738 26.79C153.273 27.2509 152.956 27.8397 152.827 28.4815C152.698 29.1232 152.764 29.7887 153.015 30.3932C153.266 30.9977 153.691 31.5138 154.236 31.8756C154.782 32.2374 155.423 32.4286 156.077 32.4248V32.4907ZM181.78 59.742H168.599C167.725 59.742 166.887 60.0892 166.269 60.7071C165.651 61.3251 165.304 62.1632 165.304 63.0372C165.304 63.9111 165.651 64.7493 166.269 65.3673C166.887 65.9852 167.725 66.3324 168.599 66.3324H181.78C182.654 66.3324 183.492 65.9852 184.11 65.3673C184.728 64.7493 185.075 63.9111 185.075 63.0372C185.075 62.1632 184.728 61.3251 184.11 60.7071C183.492 60.0892 182.654 59.742 181.78 59.742ZM85.9223 31.5351C86.2339 31.8401 86.6025 32.0809 87.0071 32.2435C87.4117 32.4061 87.8443 32.4874 88.2804 32.4829C88.7164 32.4783 89.1472 32.3878 89.5483 32.2167C89.9494 32.0456 90.3129 31.7972 90.6179 31.4856C90.923 31.1741 91.1637 30.8055 91.3264 30.4009C91.489 29.9963 91.5703 29.5636 91.5657 29.1276C91.5612 28.6915 91.4707 28.2607 91.2996 27.8596C91.1285 27.4585 90.8801 27.0951 90.5685 26.79L81.342 17.6623C80.7116 17.1224 79.9007 16.8403 79.0714 16.8724C78.2421 16.9044 77.4554 17.2482 76.8685 17.8351C76.2817 18.4219 75.9379 19.2086 75.9058 20.0379C75.8738 20.8673 76.1559 21.6781 76.6957 22.3085L85.9223 31.5351ZM49.6751 125.91C48.8011 125.91 47.963 126.257 47.345 126.875C46.7271 127.493 46.3799 128.331 46.3799 129.205V181.928C46.3799 182.802 46.7271 183.64 47.345 184.258C47.963 184.876 48.8011 185.223 49.6751 185.223C50.549 185.223 51.3872 184.876 52.0051 184.258C52.6231 183.64 52.9703 182.802 52.9703 181.928V129.205C52.9703 128.331 52.6231 127.493 52.0051 126.875C51.3872 126.257 50.549 125.91 49.6751 125.91ZM66.1511 112.729C65.2771 112.729 64.439 113.076 63.821 113.694C63.2031 114.312 62.8559 115.15 62.8559 116.024V168.747C62.8559 169.621 63.2031 170.459 63.821 171.077C64.439 171.695 65.2771 172.042 66.1511 172.042C67.025 172.042 67.8632 171.695 68.4811 171.077C69.0991 170.459 69.4463 169.621 69.4463 168.747V116.024C69.4463 115.15 69.0991 114.312 68.4811 113.694C67.8632 113.076 67.025 112.729 66.1511 112.729ZM82.6271 125.91C81.7531 125.91 80.915 126.257 80.297 126.875C79.6791 127.493 79.3319 128.331 79.3319 129.205V181.928C79.3319 182.802 79.6791 183.64 80.297 184.258C80.915 184.876 81.7531 185.223 82.6271 185.223C83.501 185.223 84.3392 184.876 84.9572 184.258C85.5751 183.64 85.9223 182.802 85.9223 181.928V129.205C85.9223 128.331 85.5751 127.493 84.9572 126.875C84.3392 126.257 83.501 125.91 82.6271 125.91ZM99.1031 112.729C98.2292 112.729 97.391 113.076 96.773 113.694C96.1551 114.312 95.8079 115.15 95.8079 116.024V168.747C95.8079 169.621 96.1551 170.459 96.773 171.077C97.391 171.695 98.2292 172.042 99.1031 172.042C99.977 172.042 100.815 171.695 101.433 171.077C102.051 170.459 102.398 169.621 102.398 168.747V116.024C102.398 115.15 102.051 114.312 101.433 113.694C100.815 113.076 99.977 112.729 99.1031 112.729ZM115.579 125.91C114.705 125.91 113.867 126.257 113.249 126.875C112.631 127.493 112.284 128.331 112.284 129.205V181.928C112.284 182.802 112.631 183.64 113.249 184.258C113.867 184.876 114.705 185.223 115.579 185.223C116.453 185.223 117.291 184.876 117.909 184.258C118.527 183.64 118.874 182.802 118.874 181.928V129.205C118.874 128.331 118.527 127.493 117.909 126.875C117.291 126.257 116.453 125.91 115.579 125.91Z" fill="url(#paint2_linear)"/>
<defs>
<linearGradient id="paint0_linear" x1="52.5326" y1="50.0187" x2="52.5326" y2="106.962" gradientUnits="userSpaceOnUse">
<stop stop-color="#FFD600"/>
<stop offset="0.78125" stop-color="#7200E3"/>
</linearGradient>
<linearGradient id="paint1_linear" x1="83.547" y1="22.8331" x2="83.547" y2="139.618" gradientUnits="userSpaceOnUse">
<stop stop-color="#FFD600"/>
<stop offset="0.78125" stop-color="#7200E3"/>
</linearGradient>
<linearGradient id="paint2_linear" x1="115.727" y1="0" x2="115.727" y2="185.223" gradientUnits="userSpaceOnUse">
<stop stop-color="#FFD600"/>
<stop offset="0.78125" stop-color="#7200E3"/>
</linearGradient>
</defs>
</svg>
