<svg width="32" height="32" viewBox="0 0 32 32" fill="none" xmlns="http://www.w3.org/2000/svg">
<path d="M15.737 31C7.474 31 1 24.411 1 16C1 12.371 2.237 8.889 4.485 6.196C4.663 5.984 4.977 5.957 5.189 6.133C5.401 6.31 5.43 6.625 5.253 6.837C3.155 9.35 2 12.604 2 16C2 23.851 8.034 30 15.737 30C23.602 30 30 23.72 30 16C30 8.28 23.602 2 15.737 2C13.297 2 10.924 2.62 8.879 3.792C8.642 3.925 8.334 3.846 8.197 3.606C8.06 3.366 8.143 3.061 8.383 2.923C10.579 1.665 13.122 1 15.737 1C24.153 1 31 7.729 31 16C31 24.271 24.153 31 15.737 31Z" fill="#FFD600"/>
<path d="M7.54297 4.552C7.54297 4.827 7.31797 5.052 7.04297 5.052C6.76797 5.052 6.54297 4.827 6.54297 4.552C6.54297 4.277 6.76797 4.052 7.04297 4.052C7.31797 4.052 7.54297 4.276 7.54297 4.552ZM19.55 24.018C19.439 24.018 19.326 23.981 19.234 23.905L13.471 19.184C13.358 19.092 13.291 18.955 13.287 18.809C13.284 18.663 13.344 18.524 13.452 18.426L17.729 14.566C17.934 14.379 18.25 14.397 18.435 14.602C18.621 14.807 18.604 15.123 18.399 15.308L14.553 18.778L19.866 23.131C20.08 23.306 20.111 23.621 19.936 23.835C19.838 23.955 19.694 24.018 19.55 24.018Z" fill="#FFD600"/>
<path d="M20.157 24.204C19.892 24.204 19.607 24.121 19.308 23.956L16.022 21.315L14.338 22.868C14.104 23.097 13.818 23.375 13.249 23.375C12.549 23.375 12.386 23.006 12.279 22.627C12.26 22.562 12.239 22.486 12.208 22.399L11.002 18.43L7.54603 17.352C6.73203 17.102 6.62303 16.603 6.61403 16.401C6.60003 16.065 6.77503 15.586 7.68803 15.22L22.536 9.49101C22.961 9.32501 23.46 9.45901 23.748 9.81401C23.951 10.063 24.029 10.387 23.963 10.703L21.398 22.978C21.168 24.084 20.453 24.204 20.157 24.204ZM16 20.155C16.111 20.155 16.222 20.192 16.313 20.266L19.863 23.128C20.322 23.347 20.363 23.043 20.42 22.774L22.985 10.5L22.922 10.419L8.05603 16.151C7.88103 16.221 7.76603 16.29 7.69603 16.341C7.73303 16.359 7.78203 16.378 7.84303 16.397L11.554 17.555C11.711 17.605 11.835 17.729 11.883 17.887L13.157 22.083C13.19 22.171 13.218 22.271 13.242 22.355C13.244 22.361 13.246 22.368 13.247 22.374C13.38 22.373 13.45 22.337 13.635 22.156L15.661 20.286C15.757 20.2 15.878 20.155 16 20.155Z" fill="#FFD600"/>
<path d="M20.043 13.552C20.043 13.827 19.818 14.052 19.543 14.052C19.268 14.052 19.043 13.827 19.043 13.552C19.043 13.277 19.268 13.052 19.543 13.052C19.818 13.052 20.043 13.276 20.043 13.552Z" fill="#FFD600"/>
</svg>
