<svg width="116" height="133" viewBox="0 0 116 133" fill="none" xmlns="http://www.w3.org/2000/svg">
<g clip-path="url(#clip0)">
<path d="M106.974 118.719L117.541 0H0L0.138095 1.54058L10.5505 118.736L10.6389 119.711L58.3259 133H59.0771L106.875 119.7L106.963 118.725L106.974 118.719ZM58.8728 25.9295H93.0265L91.999 37.8995L58.3038 52.9285L58.8672 55.6328H90.4855L86.8453 97.4779L58.7512 105.292L30.6682 97.489L28.9006 77.4503H40.4619L41.3899 87.6082L41.4783 88.5946L58.5192 93.1388H59.2539L76.107 88.4395L76.1899 87.4586L77.7808 68.6945L77.9078 67.165H27.9339L26.8844 55.123L61.7341 40.1549L61.1817 37.4395H25.3874L24.3655 25.9128H58.8341L58.8728 25.9295Z" fill="#FFD600"/>
</g>
<defs>
<clipPath id="clip0">
<rect width="116" height="133" fill="white"/>
</clipPath>
</defs>
</svg>
