<svg width="275" height="261" viewBox="0 0 275 261" fill="none" xmlns="http://www.w3.org/2000/svg">
<path d="M190.546 182.28C200.694 181.23 208.393 172.484 208.043 161.987C207.694 151.492 198.944 143.095 188.446 143.095H187.747C176.897 143.445 168.499 152.541 168.849 163.387C169.199 168.635 171.298 173.183 174.448 176.332C162.55 199.773 144.352 216.916 117.057 231.261C98.5091 241.057 79.2623 244.556 60.0155 242.108C44.2675 240.008 32.0192 233.011 24.3192 221.465C13.1216 204.322 12.0721 185.778 21.5209 167.236C28.1703 153.941 38.6676 144.144 45.317 139.246C43.9173 134.698 41.8172 127.001 40.7677 121.404C-9.97521 158.14 -4.7255 207.82 10.6723 231.261C22.2202 248.755 45.6672 259.601 71.5634 259.601C78.5619 259.601 85.5604 258.9 92.56 257.152C137.354 248.405 171.299 221.815 190.546 182.28V182.28ZM252.137 138.897C225.541 107.759 186.347 90.6155 141.553 90.6155H135.954C132.805 84.3181 126.155 80.119 118.806 80.119H118.106C107.259 80.4691 98.8603 89.5652 99.2094 100.412C99.5596 110.907 108.308 119.304 118.806 119.304H119.506C127.205 118.954 133.854 114.056 136.653 107.408H142.953C169.549 107.408 194.745 115.105 217.493 130.15C234.99 141.696 247.588 156.74 254.587 174.933C260.536 189.627 260.185 203.971 253.886 216.217C244.088 234.76 227.641 244.906 205.944 244.906C191.946 244.906 178.648 240.707 171.648 237.558C167.799 241.057 160.8 246.655 155.9 250.154C170.949 257.151 186.347 261 201.044 261C234.639 261 259.486 242.457 268.935 223.914C279.083 203.621 278.383 168.635 252.137 138.897V138.897ZM74.3628 188.227C74.713 198.723 83.4614 207.119 93.9597 207.119H94.6601C105.509 206.77 113.907 197.673 113.557 186.827C113.208 176.331 104.458 167.935 93.9597 167.935H93.2604C92.56 167.935 91.5094 167.935 90.8112 168.284C76.4629 144.493 70.5138 118.604 72.6139 90.6145C74.0126 69.6225 81.0122 51.4291 93.2604 36.3845C103.409 23.4395 123.006 17.142 136.304 16.7929C173.398 16.0927 189.145 62.2747 190.196 80.8181C194.745 81.8674 202.444 84.317 207.694 86.0664C203.494 29.389 168.499 0 134.905 0C103.409 0 74.3628 22.7414 62.8138 56.3284C46.7167 101.111 57.215 144.144 76.812 178.081C75.0632 180.53 74.0126 184.379 74.3628 188.228V188.227Z" fill="#764ABC"/>
</svg>
