<svg width="280" height="210" viewBox="0 0 280 210" fill="none" xmlns="http://www.w3.org/2000/svg">
<g clip-path="url(#clip0)">
<path d="M240.953 120.641C231.164 120.696 222.688 123.047 215.578 126.547C212.953 121.352 210.328 116.812 209.891 113.422C209.399 109.485 208.798 107.078 209.399 102.376C210 97.6719 212.735 91 212.735 90.4531C212.679 89.9609 212.133 87.5547 206.5 87.5C200.868 87.4453 196 88.5937 195.453 90.0703C194.907 91.5469 193.813 94.9375 193.102 98.4375C192.117 103.578 181.836 121.789 175.985 131.359C174.071 127.641 172.43 124.359 172.101 121.734C171.61 117.797 171.008 115.39 171.61 110.687C172.211 105.984 174.946 99.3125 174.946 98.7656C174.891 98.2734 174.344 95.8672 168.712 95.8125C163.078 95.7578 158.212 96.9062 157.665 98.3828C157.118 99.8594 156.516 103.359 155.313 106.75C154.164 110.141 140.492 140.547 136.938 148.477C135.133 152.523 133.548 155.75 132.399 157.937C131.25 160.125 132.344 158.102 132.235 158.32C131.25 160.18 130.703 161.219 130.703 161.219V161.274C129.938 162.641 129.117 163.953 128.734 163.953C128.461 163.953 127.914 160.289 128.843 155.258C130.867 144.703 135.789 128.243 135.735 127.641C135.735 127.368 136.664 124.469 132.562 122.993C128.57 121.516 127.149 123.977 126.82 123.977C126.492 123.977 126.218 124.852 126.218 124.852C126.218 124.852 130.648 106.314 117.742 106.314C109.648 106.314 98.4919 115.118 92.9685 123.157C89.4685 125.071 82.031 129.118 74.156 133.439C71.1482 135.079 68.031 136.829 65.0778 138.415L64.4768 137.758C48.8362 121.078 19.9065 109.266 21.1096 86.8437C21.5471 78.6953 24.3909 57.2031 76.6727 31.1719C119.493 9.84376 153.782 15.6953 159.742 28.7109C168.219 47.3047 141.422 81.8672 96.9071 86.8437C79.9539 88.7578 71.0393 82.1953 68.7977 79.7344C66.4461 77.1641 66.118 77.0547 65.243 77.5469C63.8211 78.3125 64.6961 80.6094 65.243 81.9766C66.5555 85.4219 72.0243 91.5469 81.3211 94.6094C89.469 97.2891 109.376 98.7656 133.438 89.4687C160.399 79.0234 181.454 50.0391 175.274 25.8125C168.985 1.14845 128.079 -6.9453 89.4149 6.78126C66.3909 14.9844 41.4534 27.7813 23.5159 44.5703C2.18777 64.4766 -1.20286 81.8672 0.219016 89.0859C5.19613 114.844 40.6878 131.633 54.9065 144.047C54.1956 144.429 53.5393 144.812 52.9378 145.141C45.8284 148.64 18.7581 162.805 11.9768 177.789C4.32058 194.742 13.18 206.937 19.0862 208.578C37.3518 213.664 56.055 204.531 66.1721 189.492C76.2341 174.453 75.0315 154.93 70.3831 146.016L70.2185 145.687L75.7966 142.406C79.4065 140.273 82.9612 138.305 86.0778 136.609C84.3284 141.367 83.07 146.999 82.4143 155.203C81.6487 164.828 85.5862 177.296 90.7815 182.218C93.0784 184.35 95.8128 184.406 97.5081 184.406C103.524 184.406 106.258 179.429 109.266 173.468C112.985 166.195 116.266 157.773 116.266 157.773C116.266 157.773 112.164 180.578 123.375 180.578C127.477 180.578 131.578 175.273 133.438 172.539V172.593C133.438 172.593 133.547 172.429 133.766 172.046C133.995 171.707 134.214 171.361 134.422 171.008V170.898C136.063 168.055 139.727 161.547 145.196 150.773C152.25 136.883 159.032 119.492 159.032 119.492C159.032 119.492 159.688 123.758 161.711 130.758C162.914 134.915 165.539 139.453 167.562 143.883C165.922 146.18 164.937 147.493 164.937 147.493L164.992 147.547C163.68 149.297 162.203 151.157 160.672 153.016C155.094 159.688 148.422 167.29 147.547 169.478C146.508 172.047 146.727 173.961 148.75 175.493C150.227 176.587 152.852 176.805 155.641 176.587C160.672 176.258 164.172 175.001 165.922 174.235C168.657 173.251 171.774 171.774 174.782 169.586C180.25 165.54 183.586 159.798 183.258 152.142C183.094 147.931 181.727 143.775 180.032 139.837C180.524 139.126 181.016 138.415 181.508 137.65C190.149 125.016 196.821 111.126 196.821 111.126C196.821 111.126 197.477 115.392 199.5 122.392C200.539 125.946 202.617 129.83 204.477 133.658C196.383 140.275 191.297 147.931 189.547 152.963C186.321 162.259 188.836 166.47 193.594 167.455C195.726 167.892 198.789 166.908 201.086 165.924C203.929 164.994 207.375 163.407 210.547 161.056C216.016 157.009 221.266 151.377 220.992 143.775C220.828 140.275 219.899 136.83 218.641 133.549C225.532 130.705 234.445 129.064 245.766 130.431C270.102 133.275 274.914 148.478 273.985 154.822C273.056 161.166 267.97 164.666 266.274 165.759C264.578 166.799 264.032 167.182 264.196 167.947C264.414 169.096 265.18 169.041 266.657 168.823C268.68 168.494 279.453 163.627 279.891 151.925C280.547 136.883 266.274 120.477 240.953 120.641V120.641ZM53.2659 183.914C45.2268 192.719 33.9065 196.055 29.094 193.211C23.8987 190.203 25.9216 177.242 35.8206 167.891C41.8362 162.203 49.6565 156.953 54.7971 153.727C55.9456 153.016 57.6956 151.977 59.7737 150.719C60.1018 150.501 60.3206 150.391 60.3206 150.391C60.7034 150.172 61.1409 149.898 61.5784 149.625C65.2425 162.969 61.7425 174.672 53.2659 183.914V183.914ZM112.055 143.938C109.266 150.773 103.36 168.328 99.805 167.344C96.7419 166.523 94.8831 153.234 99.2028 140.109C101.39 133.492 106.039 125.617 108.773 122.554C113.203 117.632 118.015 115.992 119.219 118.015C120.641 120.641 113.805 139.672 112.055 143.938ZM160.563 167.125C159.36 167.727 158.266 168.164 157.774 167.836C157.391 167.618 158.265 166.797 158.265 166.797C158.265 166.797 164.336 160.29 166.742 157.282C168.109 155.532 169.75 153.509 171.5 151.211V151.868C171.5 159.742 163.953 164.992 160.563 167.125ZM197.968 158.594C197.093 157.937 197.203 155.914 200.156 149.57C201.305 147.055 203.929 142.844 208.468 138.852C209.015 140.492 209.344 142.078 209.289 143.555C209.235 153.398 202.235 157.062 197.968 158.594Z" fill="#CF649A"/>
</g>
<defs>
<clipPath id="clip0">
<rect width="280" height="210" fill="white"/>
</clipPath>
</defs>
</svg>
