<svg width="264" height="292" viewBox="0 0 264 292" fill="none" xmlns="http://www.w3.org/2000/svg">
<path d="M255.233 224.856L137.18 291.688V239.633L210.625 199.188L255.233 224.856ZM263.327 217.549V77.8969L220.129 102.872V192.62L263.304 217.526L263.327 217.549ZM8.76691 224.856L126.704 291.641V239.633L53.2363 199.188L8.76691 224.856ZM0.673157 217.549V77.8969L43.8707 102.872V192.62L0.673157 217.549ZM5.73753 68.855L126.82 0.3125V50.6325L49.2357 93.2981L48.6113 93.645L5.73753 68.855ZM258.216 68.855L137.18 0.3125V50.6325L214.764 93.275L215.389 93.6219L258.263 68.855H258.216Z" fill="#8ED6FB"/>
<path d="M126.82 227.793L54.2306 187.856V108.815L126.82 150.625V227.793ZM137.18 227.793L209.769 187.903V108.815L137.18 150.625V227.793ZM59.1562 99.75L132 59.6512L204.844 99.75L132 141.745L59.1562 99.75Z" fill="#1C78C0"/>
</svg>
