<svg width="48" height="34" viewBox="0 0 48 34" fill="none" xmlns="http://www.w3.org/2000/svg">
<path fill-rule="evenodd" clip-rule="evenodd" d="M19.044 23.27L19.042 9.68799L32.012 16.502L19.044 23.27ZM47.52 7.33401C47.52 7.33401 47.05 4.00401 45.612 2.53601C43.786 0.610011 41.741 0.601014 40.803 0.489014C34.086 1.36793e-05 24.011 0 24.011 0H23.989C23.989 0 13.914 -9.77516e-06 7.19701 0.48999C6.25801 0.60099 4.21399 0.610011 2.38699 2.53601C0.947993 4.00301 0.479996 7.33401 0.479996 7.33401C0.479996 7.33401 0 11.247 0 15.158V18.826C0 22.738 0.479996 26.649 0.479996 26.649C0.479996 26.649 0.947993 29.98 2.38699 31.447C4.21399 33.373 6.61199 33.313 7.67999 33.514C11.52 33.885 24 34 24 34C24 34 34.086 33.985 40.803 33.495C41.741 33.382 43.786 33.373 45.612 31.447C47.051 29.98 47.52 26.649 47.52 26.649C47.52 26.649 48 22.739 48 18.826V15.158C48 11.247 47.52 7.33401 47.52 7.33401Z" fill="#CE1312"/>
</svg>
