<svg width="30" height="30" viewBox="0 0 30 30" fill="none" xmlns="http://www.w3.org/2000/svg">
<path fill-rule="evenodd" clip-rule="evenodd" d="M15 0.35437C9.49388 0.35437 5.02856 4.81851 5.02856 10.3259C5.02856 14.7314 7.8856 18.4692 11.8477 19.7876C12.346 19.8799 12.529 19.5712 12.529 19.3078C12.529 19.0701 12.5197 18.2845 12.5154 17.4516C9.74114 18.0546 9.15591 16.275 9.15591 16.275C8.70239 15.1223 8.04872 14.8158 8.04872 14.8158C7.14403 14.197 8.11669 14.2097 8.11669 14.2097C9.11817 14.28 9.64552 15.2374 9.64552 15.2374C10.5347 16.7618 11.9783 16.3209 12.5471 16.0662C12.6368 15.4216 12.8951 14.9815 13.1804 14.7326C10.9655 14.4806 8.63724 13.6254 8.63724 9.8046C8.63724 8.71593 9.02677 7.82648 9.66474 7.12804C9.56114 6.87679 9.21989 5.86242 9.7613 4.48898C9.7613 4.48898 10.5985 4.22132 12.5035 5.51156C13.2992 5.29054 14.1523 5.17968 14.9996 5.17593C15.8471 5.17992 16.7007 5.29078 17.4975 5.51156C19.4007 4.22156 20.2369 4.48921 20.2369 4.48921C20.7797 5.86265 20.4385 6.87679 20.3349 7.12828C20.9743 7.82624 21.361 8.71593 21.361 9.80484C21.361 13.6345 19.0283 14.4778 16.8078 14.7244C17.1654 15.0337 17.4842 15.6408 17.4842 16.5712C17.4842 17.9053 17.4729 18.979 17.4729 19.3073C17.4729 19.5722 17.6525 19.8834 18.1578 19.7855C22.1178 18.4655 24.9711 14.7291 24.9711 10.3249C24.9715 4.81874 20.5072 0.35437 15 0.35437Z" fill="#FFD600"/>
<path d="M8.80538 14.6709C8.78312 14.7206 8.70507 14.7354 8.63429 14.7014C8.56163 14.6686 8.52132 14.6013 8.54476 14.5514C8.56585 14.5008 8.64413 14.4865 8.71656 14.5205C8.78921 14.5533 8.83046 14.6212 8.80562 14.6709H8.80538ZM9.20921 15.1219C9.16163 15.1657 9.06859 15.1453 9.0053 15.0755C8.94015 15.0058 8.92796 14.9128 8.97624 14.8683C9.02499 14.8242 9.11523 14.8448 9.18015 14.9144C9.24577 14.9847 9.25866 15.0769 9.20898 15.1216L9.20921 15.1219ZM9.60226 15.6956C9.54132 15.7383 9.44124 15.6984 9.3796 15.6096C9.3182 15.5212 9.3182 15.4151 9.38077 15.3722C9.44265 15.3295 9.54109 15.368 9.60343 15.4558C9.66484 15.5461 9.66484 15.6527 9.60226 15.6958V15.6956ZM10.1409 16.2506C10.0862 16.3108 9.96976 16.2947 9.88468 16.2124C9.79749 16.132 9.77335 16.0179 9.82796 15.9576C9.88351 15.8974 10.0005 15.9143 10.0862 15.9958C10.173 16.076 10.1992 16.1904 10.1409 16.2504V16.2506ZM10.8843 16.5726C10.8599 16.6509 10.7479 16.6863 10.6349 16.6533C10.5219 16.619 10.4484 16.5276 10.4709 16.4489C10.4943 16.3701 10.6073 16.3333 10.7209 16.3687C10.8334 16.4025 10.9073 16.493 10.8841 16.5726H10.8843ZM11.6999 16.6324C11.703 16.7144 11.6071 16.7829 11.4885 16.7843C11.3694 16.7871 11.2729 16.7205 11.2715 16.6394C11.2715 16.5565 11.3652 16.489 11.4843 16.4871C11.6029 16.4848 11.6999 16.5508 11.6999 16.6324ZM12.4593 16.5033C12.4734 16.5834 12.3913 16.6659 12.2734 16.6877C12.1576 16.7093 12.0508 16.6596 12.0358 16.5799C12.0217 16.4979 12.1054 16.4158 12.2209 16.3943C12.3388 16.3737 12.4443 16.4219 12.4593 16.5035V16.5033Z" fill="#FFD600"/>
<path d="M5.82542 25.3833H3.31761C3.28653 25.3833 3.25672 25.3956 3.23474 25.4176C3.21277 25.4396 3.20042 25.4694 3.20042 25.5005V26.7267C3.20042 26.7578 3.21277 26.7876 3.23474 26.8096C3.25672 26.8316 3.28653 26.8439 3.31761 26.8439H4.29565V28.3673C4.29565 28.3673 4.07604 28.4423 3.46831 28.4423C2.75206 28.4423 1.75104 28.1808 1.75104 25.9795C1.75104 23.778 2.79354 23.4881 3.77229 23.4881C4.61933 23.4881 4.98401 23.6372 5.21651 23.7091C5.28917 23.7312 5.35714 23.6585 5.35714 23.5938L5.63675 22.4091C5.6372 22.3913 5.63334 22.3737 5.6255 22.3578C5.61767 22.3419 5.60608 22.3281 5.59175 22.3177C5.4973 22.2502 4.92214 21.9286 3.46878 21.9286C1.7944 21.9286 0.0769043 22.6406 0.0769043 26.0653C0.0769043 29.4895 2.04331 29.9998 3.70034 29.9998C5.07237 29.9998 5.90464 29.4134 5.90464 29.4134C5.93886 29.3946 5.94261 29.3466 5.94261 29.3243V25.5002C5.94261 25.4692 5.93026 25.4393 5.90828 25.4174C5.88631 25.3954 5.8565 25.383 5.82542 25.383V25.3833ZM18.6342 22.2211H17.2219C17.2065 22.2212 17.1912 22.2243 17.177 22.2302C17.1628 22.2362 17.1499 22.2449 17.1391 22.2558C17.1283 22.2668 17.1197 22.2798 17.1139 22.294C17.108 22.3083 17.1051 22.3236 17.1052 22.339L17.1057 25.068H14.9044V22.339C14.9045 22.3236 14.9016 22.3083 14.8958 22.2941C14.89 22.2798 14.8814 22.2669 14.8706 22.2559C14.8598 22.245 14.8469 22.2363 14.8327 22.2303C14.8185 22.2243 14.8033 22.2212 14.7879 22.2211H13.3758C13.3604 22.2212 13.3452 22.2243 13.3309 22.2302C13.3167 22.2362 13.3038 22.2449 13.293 22.2558C13.2822 22.2668 13.2736 22.2798 13.2678 22.294C13.2619 22.3083 13.259 22.3236 13.2591 22.339V29.7288C13.2591 29.7937 13.3116 29.8467 13.3758 29.8467H14.7879C14.8033 29.8466 14.8186 29.8435 14.8328 29.8375C14.847 29.8315 14.8598 29.8228 14.8707 29.8118C14.8815 29.8008 14.89 29.7878 14.8958 29.7736C14.9016 29.7593 14.9045 29.744 14.9044 29.7286V26.5678H17.1057L17.1019 29.7286C17.1019 29.7937 17.1544 29.8467 17.2191 29.8467H18.6342C18.6497 29.8466 18.6649 29.8435 18.6791 29.8375C18.6933 29.8315 18.7062 29.8228 18.717 29.8118C18.7278 29.8008 18.7364 29.7878 18.7421 29.7736C18.7479 29.7593 18.7509 29.744 18.7507 29.7286V22.3387C18.7507 22.2736 18.6992 22.2211 18.6342 22.2211V22.2211ZM7.57972 22.3891C7.07722 22.3891 6.6694 22.8 6.6694 23.3086C6.6694 23.8165 7.07722 24.2285 7.57972 24.2285C8.08269 24.2285 8.49026 23.8165 8.49026 23.3086C8.49026 22.8 8.08245 22.3891 7.57972 22.3891ZM8.27253 24.641H6.86487C6.80019 24.641 6.74253 24.7076 6.74253 24.7723V29.6594C6.74253 29.8031 6.83206 29.8458 6.94784 29.8458H8.21581C8.35526 29.8458 8.38925 29.7773 8.38925 29.6571V28.1698V24.7589C8.38931 24.7435 8.38634 24.7283 8.38051 24.714C8.37468 24.6998 8.36609 24.6868 8.35526 24.6759C8.34442 24.665 8.33153 24.6563 8.31734 24.6503C8.30315 24.6444 8.28792 24.6413 8.27253 24.6412V24.641ZM24.1177 24.652H22.7161C22.7007 24.6521 22.6855 24.6553 22.6713 24.6613C22.6572 24.6673 22.6443 24.676 22.6335 24.687C22.6227 24.698 22.6142 24.711 22.6084 24.7252C22.6027 24.7395 22.5997 24.7548 22.5999 24.7702V28.3936C22.5999 28.3936 22.2436 28.6537 21.7385 28.6537C21.2335 28.6537 21.0994 28.4248 21.0994 27.93V24.7702C21.0995 24.7547 21.0966 24.7395 21.0908 24.7252C21.085 24.7109 21.0765 24.6979 21.0657 24.6869C21.0548 24.676 21.042 24.6672 21.0278 24.6612C21.0136 24.6552 20.9983 24.6521 20.9829 24.652H19.5607C19.5296 24.6523 19.4999 24.6648 19.478 24.687C19.4561 24.7091 19.4439 24.739 19.444 24.7702V28.1691C19.444 29.6386 20.2632 29.9981 21.3898 29.9981C22.3142 29.9981 23.0595 29.4872 23.0595 29.4872C23.0595 29.4872 23.0946 29.7567 23.111 29.7884C23.1275 29.8202 23.1689 29.8523 23.2142 29.8523L24.1189 29.8484C24.1343 29.8483 24.1496 29.8452 24.1638 29.8392C24.1781 29.8333 24.191 29.8245 24.2019 29.8136C24.2128 29.8026 24.2214 29.7896 24.2273 29.7753C24.2331 29.761 24.2361 29.7457 24.236 29.7302L24.2353 24.7694C24.2352 24.7384 24.2228 24.7086 24.2009 24.6866C24.179 24.6645 24.1492 24.652 24.1182 24.6518L24.1177 24.652ZM27.9478 24.4861C27.1519 24.4861 26.6105 24.8412 26.6105 24.8412V22.3387C26.6106 22.3234 26.6077 22.3081 26.6018 22.2938C26.596 22.2796 26.5875 22.2666 26.5767 22.2557C26.5659 22.2447 26.553 22.236 26.5388 22.23C26.5246 22.2241 26.5094 22.2209 26.494 22.2209H25.0782C25.0627 22.2209 25.0474 22.2239 25.0331 22.2298C25.0189 22.2358 25.0059 22.2445 24.995 22.2554C24.9841 22.2664 24.9755 22.2794 24.9697 22.2937C24.9638 22.308 24.9609 22.3233 24.961 22.3387V29.7286C24.9609 29.744 24.9638 29.7594 24.9697 29.7737C24.9755 29.788 24.9841 29.801 24.995 29.8119C25.0059 29.8229 25.0189 29.8316 25.0331 29.8375C25.0474 29.8434 25.0627 29.8465 25.0782 29.8465H26.0607C26.1052 29.8465 26.1385 29.8237 26.1631 29.7837C26.1872 29.7438 26.2226 29.4429 26.2226 29.4429C26.2226 29.4429 26.8015 29.9913 27.8979 29.9913C29.1846 29.9913 29.9229 29.3388 29.9229 27.0612C29.9229 24.7835 28.744 24.4859 27.9476 24.4859L27.9478 24.4861ZM27.3947 28.6495C26.9089 28.6348 26.5791 28.4142 26.5791 28.4142V26.074C26.5791 26.074 26.9044 25.8748 27.3033 25.8387C27.8079 25.7934 28.2942 25.946 28.2942 27.1498C28.2942 28.4194 28.0751 28.6699 27.395 28.6493L27.3947 28.6495ZM12.4676 28.6219C12.406 28.6219 12.248 28.6469 12.0856 28.6469C11.5653 28.6469 11.3888 28.4051 11.3888 28.0919V26.014H12.4482C12.4636 26.014 12.4789 26.0109 12.4932 26.005C12.5075 25.999 12.5205 25.9903 12.5314 25.9793C12.5422 25.9683 12.5509 25.9553 12.5567 25.941C12.5625 25.9267 12.5655 25.9113 12.5653 25.8959V24.7577C12.5654 24.7423 12.5624 24.727 12.5566 24.7127C12.5507 24.6985 12.5421 24.6855 12.5312 24.6746C12.5203 24.6636 12.5074 24.655 12.4931 24.649C12.4789 24.6431 12.4636 24.6401 12.4482 24.6401H11.3888L11.3871 23.2409C11.3871 23.1877 11.36 23.1612 11.2985 23.1612H9.8548C9.79901 23.1612 9.76878 23.186 9.76878 23.2397V24.6858C9.76878 24.6858 9.04526 24.8604 8.99651 24.8744C8.97217 24.8815 8.95079 24.8964 8.93558 24.9166C8.92036 24.9369 8.91214 24.9616 8.91214 24.9869V25.8956C8.91205 25.911 8.91499 25.9263 8.92079 25.9405C8.92659 25.9548 8.93515 25.9677 8.94596 25.9787C8.95678 25.9896 8.96965 25.9983 8.98383 26.0043C8.99801 26.0103 9.01323 26.0134 9.02862 26.0135H9.76878V28.1998C9.76878 29.824 10.9078 29.9834 11.6766 29.9834C12.0275 29.9834 12.4477 29.8709 12.5171 29.8451C12.5592 29.8294 12.5834 29.786 12.5834 29.7389L12.5843 28.7393C12.5838 28.7083 12.5714 28.6787 12.5495 28.6568C12.5276 28.6348 12.4981 28.6222 12.4671 28.6216L12.4676 28.6219Z" fill="#FFD600"/>
</svg>
